<svg width="64" height="64" viewBox="0 0 64 64" fill="none" xmlns="http://www.w3.org/2000/svg">
<rect width="63.9102" height="63.9102" rx="31.9551" fill="#FC0D1B"/>
<path d="M49.5306 28.2974C49.6096 26.0104 49.1094 23.7406 48.0766 21.6986C47.3758 20.8608 46.4033 20.2953 45.3285 20.1009C40.8827 19.6975 36.4186 19.5322 31.9552 19.6056C27.5081 19.5288 23.0601 19.6888 18.63 20.0849C17.7541 20.2442 16.9436 20.6551 16.2972 21.2672C14.8593 22.5934 14.6995 24.8622 14.5397 26.7795C14.3079 30.2268 14.3079 33.6857 14.5397 37.133C14.5859 38.2121 14.7466 39.2833 15.019 40.3285C15.2117 41.1355 15.6015 41.8821 16.1534 42.5014C16.8042 43.1461 17.6336 43.5802 18.5341 43.7477C21.9787 44.1729 25.4495 44.3491 28.9195 44.2749C34.5117 44.3548 39.4168 44.2749 45.2166 43.8276C46.1393 43.6704 46.992 43.2357 47.6612 42.5813C48.1085 42.1338 48.4426 41.5861 48.6358 40.9836C49.2072 39.2302 49.4879 37.3952 49.4667 35.5512C49.5306 34.6564 49.5306 29.256 49.5306 28.2974ZM28.3443 36.5098V26.6197L37.803 31.5888C35.1508 33.0587 31.6517 34.7204 28.3443 36.5098Z" fill="white"/>
</svg>
