<svg width="287"
     height="65"
     viewBox="0 0 287 65"
     fill="none"
     xmlns="http://www.w3.org/2000/svg">
  <path d="M13.1564 64.9998H2.47974C1.60724 64.9998 0.964342 64.8164 0.551053 64.4497C0.183684 64.0371 0 63.3952 0 62.5242V17.962C0 17.0909 0.183684 16.472 0.551053 16.1052C0.964342 15.6926 1.60724 15.4863 2.47974 15.4863H13.1564C14.0289 15.4863 14.6488 15.6926 15.0162 16.1052C15.4295 16.472 15.6361 17.0909 15.6361 17.962V33.7788H18.3914L25.4862 17.7557C25.8076 16.9305 26.2439 16.3574 26.7949 16.0365C27.346 15.6697 28.0578 15.4863 28.9303 15.4863H39.538C40.3187 15.4863 40.8468 15.6926 41.1223 16.1052C41.3978 16.472 41.3749 17.0222 41.0534 17.7557L34.0275 33.7788C36.5991 33.9163 38.6426 34.8333 40.158 36.5296C41.7193 38.18 42.4999 40.3806 42.4999 43.1314V62.5242C42.4999 63.3952 42.2933 64.0371 41.88 64.4497C41.5126 64.8164 40.8927 64.9998 40.0202 64.9998H29.4124C28.5399 64.9998 27.897 64.8164 27.4838 64.4497C27.1164 64.0371 26.9327 63.3952 26.9327 62.5242V49.1142C26.9327 48.3807 26.749 47.8076 26.3817 47.395C26.0143 46.9824 25.4632 46.7761 24.7285 46.7761H15.6361V62.5242C15.6361 63.3952 15.4295 64.0371 15.0162 64.4497C14.6488 64.8164 14.0289 64.9998 13.1564 64.9998Z"
        fill="#5475E7" />
  <path d="M52.7698 64.9998C51.8973 64.9998 51.2544 64.8164 50.8411 64.4497C50.4737 64.0371 50.29 63.3952 50.29 62.5242V54.3407C50.29 53.4696 50.4737 52.8507 50.8411 52.4839C51.2544 52.0713 51.8973 51.865 52.7698 51.865H59.589V28.7587H52.7698C51.8973 28.7587 51.2544 28.5753 50.8411 28.2085C50.4737 27.7959 50.29 27.1541 50.29 26.283V17.962C50.29 17.0909 50.4737 16.894 50.8411 16.5273C55.4879 14.617 53.6052 24.1682 63.1721 24.1682H72.1542C80.7644 25.1234 79.4052 14.617 83.9731 16.1052C84.3864 16.472 84.593 17.0909 84.593 17.962V26.283C84.593 27.1541 84.3864 27.7959 83.9731 28.2085C83.6058 28.5753 82.9858 28.7587 82.1133 28.7587H75.4318V51.865H82.1133C82.9858 51.865 83.6058 52.0713 83.9731 52.4839C84.3864 52.8507 84.593 53.4696 84.593 54.3407V62.5242C84.593 63.3952 84.3864 64.0371 83.9731 64.4497C83.6058 64.8164 82.9858 64.9998 82.1133 64.9998H52.7698Z"
        fill="#5475E7" />
  <path d="M122.028 64.9998H95.5775C94.705 64.9998 94.0621 64.8164 93.6488 64.4497C93.2815 64.0371 93.0978 63.3952 93.0978 62.5242V17.962C93.0978 17.0909 93.2815 16.472 93.6488 16.1052C94.0621 15.6926 94.705 15.4863 95.5775 15.4863H117.551C122.051 15.4863 125.38 16.3574 127.539 18.0995C129.697 19.7958 130.776 22.432 130.776 26.0079V29.3088C130.776 31.2344 130.432 32.8161 129.743 34.0539C129.1 35.2459 128.09 36.1399 126.712 36.7359C129.651 37.0109 131.832 38.0196 133.256 39.7617C134.679 41.5038 135.391 44.0483 135.391 47.395V53.7218C135.391 57.5728 134.289 60.4152 132.085 62.2491C129.926 64.0829 126.574 64.9998 122.028 64.9998ZM108.596 27.177V34.604H114.451C115.324 34.604 115.966 34.3748 116.38 33.9164C116.839 33.4579 117.069 32.7702 117.069 31.8533V29.9278C117.069 29.0108 116.839 28.3232 116.38 27.8647C115.966 27.4062 115.324 27.177 114.451 27.177H108.596ZM108.596 45.1944V53.3091H117.551C118.423 53.3091 119.066 53.0799 119.479 52.6215C119.939 52.163 120.168 51.4753 120.168 50.5584V47.8764C120.168 46.9595 119.939 46.2947 119.479 45.8821C119.066 45.4237 118.423 45.1944 117.551 45.1944H108.596Z"
        fill="#5475E7" />
  <path d="M160.988 29.9278L157.751 40.3806H168.565L165.328 29.9278C165.144 29.5152 164.937 29.2172 164.708 29.0338C164.524 28.8504 164.294 28.7587 164.019 28.7587H162.297C162.021 28.7587 161.769 28.8504 161.539 29.0338C161.355 29.2172 161.172 29.5152 160.988 29.9278ZM157.062 62.5242C157.062 63.3952 156.855 64.0371 156.442 64.4497C156.075 64.8164 155.455 64.9998 154.582 64.9998H144.457C143.584 64.9998 142.941 64.8164 142.528 64.4497C142.16 64.0371 141.977 63.3952 141.977 62.5242V44.3692C141.977 42.9938 142.183 41.4121 142.597 39.6242C143.056 37.8362 143.745 35.7502 144.663 33.3662L150.656 17.7557C150.931 16.9763 151.345 16.4032 151.896 16.0365C152.493 15.6697 153.25 15.4863 154.169 15.4863H172.698C173.57 15.4863 174.282 15.6697 174.833 16.0365C175.43 16.4032 175.867 16.9763 176.142 17.7557L182.135 33.3662C183.053 35.7502 183.719 37.8362 184.132 39.6242C184.592 41.4121 184.821 42.9938 184.821 44.3692V62.5242C184.821 63.3952 184.615 64.0371 184.201 64.4497C183.834 64.8164 183.214 64.9998 182.341 64.9998H171.94C171.022 64.9998 170.333 64.8164 169.874 64.4497C169.461 64.0371 169.254 63.3952 169.254 62.5242V52.8965H157.062V62.5242Z"
        fill="#5475E7" />
  <path d="M206.138 64.9998H195.806C194.933 64.9998 194.29 64.8164 193.877 64.4497C193.51 64.0371 193.326 63.3952 193.326 62.5242V17.962C193.326 17.0909 193.51 16.472 193.877 16.1052C194.29 15.6926 194.933 15.4863 195.806 15.4863H202.969C203.842 15.4863 204.577 15.6239 205.174 15.8989C205.816 16.174 206.436 16.6554 207.033 17.3431L220.396 32.6097V17.962C220.396 17.0909 220.58 16.472 220.947 16.1052C221.361 15.6926 222.004 15.4863 222.876 15.4863H233.208C234.081 15.4863 234.701 15.6926 235.068 16.1052C235.481 16.472 235.688 17.0909 235.688 17.962V62.5242C235.688 63.3952 235.481 64.0371 235.068 64.4497C234.701 64.8164 234.081 64.9998 233.208 64.9998H222.876C222.004 64.9998 221.361 64.8164 220.947 64.4497C220.58 64.0371 220.396 63.3952 220.396 62.5242V54.0656L208.618 39.8305V62.5242C208.618 63.3952 208.411 64.0371 207.998 64.4497C207.63 64.8164 207.01 64.9998 206.138 64.9998Z"
        fill="#5475E7" />
  <path d="M263.167 29.9278L259.93 40.3806H270.744L267.507 29.9278C267.323 29.5152 267.116 29.2172 266.887 29.0338C266.703 28.8504 266.473 28.7587 266.198 28.7587H264.476C264.2 28.7587 263.948 28.8504 263.718 29.0338C263.534 29.2172 263.351 29.5152 263.167 29.9278ZM259.241 62.5242C259.241 63.3952 259.034 64.0371 258.621 64.4497C258.253 64.8164 257.633 64.9998 256.761 64.9998H246.635C245.763 64.9998 245.12 64.8164 244.707 64.4497C244.339 64.0371 244.156 63.3952 244.156 62.5242V44.3692C244.156 42.9938 244.362 41.4121 244.776 39.6242C245.235 37.8362 245.924 35.7502 246.842 33.3662L252.835 17.7557C253.11 16.9763 253.524 16.4032 254.075 16.0365C254.672 15.6697 255.429 15.4863 256.348 15.4863H274.877C275.749 15.4863 276.461 15.6697 277.012 16.0365C277.609 16.4032 278.045 16.9763 278.321 17.7557L284.314 33.3662C285.232 35.7502 285.898 37.8362 286.311 39.6242C286.77 41.4121 287 42.9938 287 44.3692V62.5242C287 63.3952 286.793 64.0371 286.38 64.4497C286.013 64.8164 285.393 64.9998 284.52 64.9998H274.119C273.201 64.9998 272.512 64.8164 272.053 64.4497C271.639 64.0371 271.433 63.3952 271.433 62.5242V52.8965H259.241V62.5242Z"
        fill="#5475E7" />
  <path d="M76.5361 9.55122C76.5361 14.8262 72.2529 19.1024 66.9692 19.1024C61.6856 19.1024 57.4023 14.8262 57.4023 9.55122C57.4023 4.27622 61.6856 0 66.9692 0C72.2529 0 76.5361 4.27622 76.5361 9.55122Z"
        fill="#77C487" />
</svg>