<svg width="64" height="64" viewBox="0 0 64 64" fill="none" xmlns="http://www.w3.org/2000/svg">
<rect width="63.9102" height="63.9102" rx="31.9551" fill="#09C962"/>
<path fill-rule="evenodd" clip-rule="evenodd" d="M39.2766 35.1265C38.8779 34.9282 36.9233 33.9722 36.5594 33.839C36.1955 33.7072 35.9306 33.642 35.6643 34.0387C35.3994 34.4329 34.6382 35.3249 34.4067 35.5886C34.1739 35.8535 33.9425 35.8855 33.5451 35.6884C33.1478 35.4887 31.8661 35.072 30.3476 33.7245C29.1663 32.6753 28.3676 31.3798 28.1361 30.983C27.9047 30.5876 28.1107 30.3732 28.3101 30.1762C28.4893 29.9991 28.7074 29.7142 28.9068 29.4838C29.1061 29.2521 29.1717 29.087 29.3041 28.8221C29.4379 28.5584 29.371 28.3281 29.2707 28.1297C29.1717 27.9313 28.377 25.9834 28.0452 25.1912C27.7227 24.4203 27.395 24.5255 27.1515 24.5121C26.9187 24.5015 26.6538 24.4988 26.3889 24.4988C26.124 24.4988 25.6932 24.5974 25.3293 24.9941C24.964 25.3896 23.9379 26.3469 23.9379 28.2948C23.9379 30.2414 25.3614 32.1228 25.5607 32.3877C25.7601 32.6514 28.3636 36.6484 32.3518 38.362C33.3017 38.7694 34.0415 39.0131 34.6181 39.1942C35.5707 39.4964 36.4376 39.4538 37.1226 39.3513C37.8852 39.2381 39.4746 38.3939 39.8064 37.4699C40.1368 36.5459 40.1368 35.7537 40.0378 35.5886C39.9388 35.4235 39.6739 35.3249 39.2752 35.1265H39.2766ZM32.0227 44.9833H32.0173C29.6485 44.9838 27.3232 44.3501 25.2851 43.1486L24.8035 42.8637L19.7972 44.1712L21.1337 39.314L20.8193 38.816C19.495 36.7181 18.7942 34.2901 18.7978 31.8125C18.8005 24.5561 24.7326 18.6524 32.028 18.6524C35.56 18.6524 38.8806 20.0238 41.377 22.511C42.6084 23.7313 43.5844 25.1826 44.2485 26.7808C44.9126 28.379 45.2517 30.0924 45.2462 31.8219C45.2435 39.0783 39.3114 44.9833 32.0227 44.9833ZM43.2768 20.6216C41.8027 19.1449 40.0488 17.974 38.1168 17.1769C36.1847 16.3797 34.1129 15.972 32.0213 15.9775C23.2529 15.9775 16.114 23.0808 16.1114 31.8112C16.11 34.6019 16.8418 37.3261 18.2346 39.7267L15.9776 47.9325L24.4115 45.7303C26.7446 46.9953 29.3591 47.6582 32.016 47.6583H32.0227C40.7911 47.6583 47.9299 40.5549 47.9326 31.8232C47.9391 29.7425 47.5309 27.6811 46.7318 25.7584C45.9326 23.8357 44.7583 22.0898 43.2768 20.6216Z" fill="white"/>
</svg>
