<svg width="64" height="64" viewBox="0 0 64 64" fill="none" xmlns="http://www.w3.org/2000/svg">
<rect width="63.9102" height="63.9102" rx="31.9551" fill="#0A66C2"/>
<path d="M45.5737 15.9774H18.3364C17.7108 15.9774 17.1108 16.2259 16.6684 16.6683C16.2261 17.1107 15.9775 17.7107 15.9775 18.3363V45.5736C15.9775 46.1992 16.2261 46.7992 16.6684 47.2416C17.1108 47.684 17.7108 47.9325 18.3364 47.9325H45.5737C46.1994 47.9325 46.7994 47.684 47.2418 47.2416C47.6841 46.7992 47.9327 46.1992 47.9327 45.5736V18.3363C47.9327 17.7107 47.6841 17.1107 47.2418 16.6683C46.7994 16.2259 46.1994 15.9774 45.5737 15.9774ZM25.5019 43.1992H20.6976V27.9384H25.5019V43.1992ZM23.0964 25.8236C22.5515 25.8205 22.0196 25.6561 21.568 25.351C21.1164 25.046 20.7653 24.614 20.5589 24.1096C20.3526 23.6052 20.3003 23.0509 20.4087 22.5168C20.517 21.9827 20.7812 21.4927 21.1678 21.1086C21.5544 20.7245 22.0461 20.4635 22.5809 20.3585C23.1157 20.2536 23.6696 20.3095 24.1726 20.519C24.6757 20.7286 25.1054 21.0825 25.4076 21.536C25.7097 21.9896 25.8707 22.5225 25.8703 23.0675C25.8755 23.4323 25.8071 23.7945 25.6693 24.1324C25.5315 24.4702 25.3271 24.7769 25.0682 25.0341C24.8093 25.2913 24.5014 25.4938 24.1626 25.6294C23.8239 25.765 23.4613 25.8311 23.0964 25.8236ZM43.2104 43.2125H38.4083V34.8753C38.4083 32.4166 37.3631 31.6576 36.0138 31.6576C34.5892 31.6576 33.1911 32.7317 33.1911 34.9375V43.2125H28.3868V27.9495H33.007V30.0643H33.0691C33.5329 29.1256 35.1573 27.5212 37.636 27.5212C40.3167 27.5212 43.2126 29.1123 43.2126 33.7724L43.2104 43.2125Z" fill="white"/>
</svg>
