<svg width="64" height="64" viewBox="0 0 64 64" fill="none" xmlns="http://www.w3.org/2000/svg">
<rect y="-0.000366211" width="63.9102" height="63.9102" rx="31.9551" fill="url(#paint0_radial_3_827)"/>
<rect y="-0.000366211" width="63.9102" height="63.9102" rx="31.9551" fill="url(#paint1_radial_3_827)"/>
<rect y="-0.000366211" width="63.9102" height="63.9102" rx="31.9551" fill="url(#paint2_radial_3_827)"/>
<path d="M44.5375 22.0689C44.5375 23.5579 43.3304 24.7651 41.8413 24.7651C40.3522 24.7651 39.1451 23.5579 39.1451 22.0689C39.1451 20.5798 40.3522 19.3727 41.8413 19.3727C43.3304 19.3727 44.5375 20.5798 44.5375 22.0689Z" fill="white"/>
<path fill-rule="evenodd" clip-rule="evenodd" d="M31.9552 40.9424C36.9188 40.9424 40.9425 36.9186 40.9425 31.955C40.9425 26.9914 36.9188 22.9676 31.9552 22.9676C26.9916 22.9676 22.9678 26.9914 22.9678 31.955C22.9678 36.9186 26.9916 40.9424 31.9552 40.9424ZM31.9552 37.3474C34.9333 37.3474 37.3476 34.9331 37.3476 31.955C37.3476 28.9768 34.9333 26.5626 31.9552 26.5626C28.977 26.5626 26.5627 28.9768 26.5627 31.955C26.5627 34.9331 28.977 37.3474 31.9552 37.3474Z" fill="white"/>
<path fill-rule="evenodd" clip-rule="evenodd" d="M13.9804 31.236C13.9804 25.1959 13.9804 22.1759 15.1559 19.8689C16.1899 17.8396 17.8397 16.1897 19.869 15.1557C22.176 13.9802 25.1961 13.9802 31.2362 13.9802H32.6742C38.7142 13.9802 41.7343 13.9802 44.0413 15.1557C46.0706 16.1897 47.7205 17.8396 48.7544 19.8689C49.9299 22.1759 49.9299 25.1959 49.9299 31.236V32.674C49.9299 38.7141 49.9299 41.7341 48.7544 44.0411C47.7205 46.0704 46.0706 47.7203 44.0413 48.7543C41.7343 49.9297 38.7142 49.9297 32.6742 49.9297H31.2362C25.1961 49.9297 22.176 49.9297 19.869 48.7543C17.8397 47.7203 16.1899 46.0704 15.1559 44.0411C13.9804 41.7341 13.9804 38.7141 13.9804 32.674V31.236ZM31.2362 17.5752H32.6742C35.7535 17.5752 37.8468 17.578 39.4649 17.7102C41.041 17.8389 41.847 18.0723 42.4092 18.3588C43.7621 19.0481 44.862 20.1481 45.5513 21.5009C45.8378 22.0632 46.0712 22.8692 46.2 24.4453C46.3322 26.0633 46.335 28.1566 46.335 31.236V32.674C46.335 35.7533 46.3322 37.8466 46.2 39.4647C46.0712 41.0408 45.8378 41.8468 45.5513 42.409C44.862 43.7619 43.7621 44.8618 42.4092 45.5511C41.847 45.8376 41.041 46.071 39.4649 46.1998C37.8468 46.332 35.7535 46.3348 32.6742 46.3348H31.2362C28.1568 46.3348 26.0635 46.332 24.4454 46.1998C22.8694 46.071 22.0634 45.8376 21.5011 45.5511C20.1482 44.8618 19.0483 43.7619 18.359 42.409C18.0725 41.8468 17.8391 41.0408 17.7104 39.4647C17.5782 37.8466 17.5754 35.7533 17.5754 32.674V31.236C17.5754 28.1566 17.5782 26.0633 17.7104 24.4453C17.8391 22.8692 18.0725 22.0632 18.359 21.5009C19.0483 20.1481 20.1482 19.0481 21.5011 18.3588C22.0634 18.0723 22.8694 17.8389 24.4454 17.7102C26.0635 17.578 28.1568 17.5752 31.2362 17.5752Z" fill="white"/>
<defs>
<radialGradient id="paint0_radial_3_827" cx="0" cy="0" r="1" gradientUnits="userSpaceOnUse" gradientTransform="translate(22.8251 47.9323) rotate(-55.3758) scale(58.2487)">
<stop stop-color="#B13589"/>
<stop offset="0.79309" stop-color="#C62F94"/>
<stop offset="1" stop-color="#8A3AC8"/>
</radialGradient>
<radialGradient id="paint1_radial_3_827" cx="0" cy="0" r="1" gradientUnits="userSpaceOnUse" gradientTransform="translate(20.5426 66.1924) rotate(-65.1363) scale(51.5716)">
<stop stop-color="#E0E8B7"/>
<stop offset="0.444662" stop-color="#FB8A2E"/>
<stop offset="0.71474" stop-color="#E2425C"/>
<stop offset="1" stop-color="#E2425C" stop-opacity="0"/>
</radialGradient>
<radialGradient id="paint2_radial_3_827" cx="0" cy="0" r="1" gradientUnits="userSpaceOnUse" gradientTransform="translate(-3.42376 2.28214) rotate(-8.1301) scale(88.7687 18.9867)">
<stop offset="0.156701" stop-color="#406ADC"/>
<stop offset="0.467799" stop-color="#6A45BE"/>
<stop offset="1" stop-color="#6A45BE" stop-opacity="0"/>
</radialGradient>
</defs>
</svg>
