<svg width="64" height="64" viewBox="0 0 64 64" fill="none" xmlns="http://www.w3.org/2000/svg">
<path fill-rule="evenodd" clip-rule="evenodd" d="M62.6321 32.6817C62.6321 30.4158 62.4287 28.237 62.0511 26.1454H31.9551V38.5062H49.1528C48.412 42.5006 46.1606 45.8849 42.7763 48.1508V56.1687H53.1036C59.146 50.6056 62.6321 42.4134 62.6321 32.6817Z" fill="#4285F4"/>
<path fill-rule="evenodd" clip-rule="evenodd" d="M31.9548 63.9107C40.5827 63.9107 47.8162 61.0493 53.1033 56.1689L42.776 48.1511C39.9145 50.0684 36.2542 51.2013 31.9548 51.2013C23.632 51.2013 16.5873 45.5801 14.0745 38.0271H3.39856V46.3064C8.65663 56.7499 19.4633 63.9107 31.9548 63.9107Z" fill="#34A853"/>
<path fill-rule="evenodd" clip-rule="evenodd" d="M14.0748 38.0276C13.4357 36.1103 13.0725 34.0622 13.0725 31.9561C13.0725 29.85 13.4357 27.8019 14.0748 25.8846V17.6053H3.39886C1.23463 21.9193 0 26.7997 0 31.9561C0 37.1125 1.23463 41.9929 3.39886 46.3069L14.0748 38.0276Z" fill="#FBBC05"/>
<path fill-rule="evenodd" clip-rule="evenodd" d="M31.9548 12.7093C36.6464 12.7093 40.8587 14.3216 44.1704 17.488L53.3357 8.32273C47.8017 3.16634 40.5682 -0.00012207 31.9548 -0.00012207C19.4633 -0.00012207 8.65663 7.16073 3.39856 17.6042L14.0745 25.8835C16.5873 18.3305 23.632 12.7093 31.9548 12.7093Z" fill="#EA4335"/>
</svg>
