<svg width="150" height="35" viewBox="0 0 150 35" fill="none" xmlns="http://www.w3.org/2000/svg">
<path d="M6.876 34.0271H1.296C0.84 34.0271 0.504 33.9311 0.288 33.7391C0.0960001 33.5231 0 33.1871 0 32.7311V9.40306C0 8.94706 0.0960001 8.62306 0.288 8.43106C0.504 8.21506 0.84 8.10706 1.296 8.10706H6.876C7.332 8.10706 7.656 8.21506 7.848 8.43106C8.064 8.62306 8.172 8.94706 8.172 9.40306V17.6831H9.612L13.32 9.29506C13.488 8.86306 13.716 8.56306 14.004 8.39506C14.292 8.20306 14.664 8.10706 15.12 8.10706H20.664C21.072 8.10706 21.348 8.21506 21.492 8.43106C21.636 8.62306 21.624 8.91106 21.456 9.29506L17.784 17.6831C19.128 17.7551 20.196 18.2351 20.988 19.1231C21.804 19.9871 22.212 21.1391 22.212 22.5791V32.7311C22.212 33.1871 22.104 33.5231 21.888 33.7391C21.696 33.9311 21.372 34.0271 20.916 34.0271H15.372C14.916 34.0271 14.58 33.9311 14.364 33.7391C14.172 33.5231 14.076 33.1871 14.076 32.7311V25.7111C14.076 25.3271 13.98 25.0271 13.788 24.8111C13.596 24.5951 13.308 24.4871 12.924 24.4871H8.172V32.7311C8.172 33.1871 8.064 33.5231 7.848 33.7391C7.656 33.9311 7.332 34.0271 6.876 34.0271Z" fill="#F7F7F8"/>
<path d="M27.5794 34.0271C27.1234 34.0271 26.7874 33.9311 26.5714 33.7391C26.3794 33.5231 26.2834 33.1871 26.2834 32.7311V28.4471C26.2834 27.9911 26.3794 27.6671 26.5714 27.4751C26.7874 27.2591 27.1234 27.1511 27.5794 27.1511H31.1434V15.0551H27.5794C27.1234 15.0551 26.7874 14.9591 26.5714 14.7671C26.3794 14.5511 26.2834 14.2151 26.2834 13.7591V9.40306C26.2834 8.94706 26.3794 8.84398 26.5714 8.65198C29 7.65198 28.016 12.652 33.016 12.652H37.7104C42.2104 13.152 41.5 7.65198 43.8874 8.43106C44.1034 8.62306 44.2114 8.94706 44.2114 9.40306V13.7591C44.2114 14.2151 44.1034 14.5511 43.8874 14.7671C43.6954 14.9591 43.3714 15.0551 42.9154 15.0551H39.4234V27.1511H42.9154C43.3714 27.1511 43.6954 27.2591 43.8874 27.4751C44.1034 27.6671 44.2114 27.9911 44.2114 28.4471V32.7311C44.2114 33.1871 44.1034 33.5231 43.8874 33.7391C43.6954 33.9311 43.3714 34.0271 42.9154 34.0271H27.5794Z" fill="#F7F7F8"/>
<path d="M63.7763 34.0271H49.9522C49.4962 34.0271 49.1602 33.9311 48.9442 33.7391C48.7522 33.5231 48.6562 33.1871 48.6562 32.7311V9.40306C48.6562 8.94706 48.7522 8.62306 48.9442 8.43106C49.1602 8.21506 49.4962 8.10706 49.9522 8.10706H61.4362C63.7882 8.10706 65.5283 8.56306 66.6562 9.47505C67.7842 10.3631 68.3483 11.7431 68.3483 13.6151V15.3431C68.3483 16.3511 68.1683 17.1791 67.8083 17.8271C67.4723 18.4511 66.9443 18.9191 66.2243 19.2311C67.7603 19.3751 68.9003 19.9031 69.6442 20.8151C70.3883 21.7271 70.7602 23.0591 70.7602 24.8111V28.1231C70.7602 30.1391 70.1842 31.6271 69.0322 32.5871C67.9043 33.5471 66.1523 34.0271 63.7763 34.0271ZM56.7562 14.2271V18.1151H59.8162C60.2723 18.1151 60.6082 17.9951 60.8242 17.7551C61.0643 17.5151 61.1842 17.1551 61.1842 16.6751V15.6671C61.1842 15.1871 61.0643 14.8271 60.8242 14.5871C60.6082 14.3471 60.2723 14.2271 59.8162 14.2271H56.7562ZM56.7562 23.6591V27.9071H61.4362C61.8923 27.9071 62.2283 27.7871 62.4443 27.5471C62.6842 27.3071 62.8043 26.9471 62.8043 26.4671V25.0631C62.8043 24.5831 62.6842 24.2351 62.4443 24.0191C62.2283 23.7791 61.8923 23.6591 61.4362 23.6591H56.7562Z" fill="#F7F7F8"/>
<path d="M84.1382 15.6671L82.4462 21.1391H88.0982L86.4062 15.6671C86.3102 15.4511 86.2022 15.2951 86.0822 15.1991C85.9862 15.1031 85.8662 15.0551 85.7222 15.0551H84.8222C84.6782 15.0551 84.5462 15.1031 84.4262 15.1991C84.3302 15.2951 84.2342 15.4511 84.1382 15.6671ZM82.0862 32.7311C82.0862 33.1871 81.9782 33.5231 81.7622 33.7391C81.5702 33.9311 81.2462 34.0271 80.7902 34.0271H75.4982C75.0422 34.0271 74.7062 33.9311 74.4902 33.7391C74.2982 33.5231 74.2022 33.1871 74.2022 32.7311V23.2271C74.2022 22.5071 74.3102 21.6791 74.5262 20.7431C74.7662 19.8071 75.1262 18.7151 75.6062 17.4671L78.7382 9.29506C78.8822 8.88705 79.0982 8.58706 79.3862 8.39506C79.6982 8.20306 80.0942 8.10706 80.5742 8.10706H90.2582C90.7142 8.10706 91.0862 8.20306 91.3742 8.39506C91.6862 8.58706 91.9142 8.88705 92.0582 9.29506L95.1902 17.4671C95.6702 18.7151 96.0182 19.8071 96.2342 20.7431C96.4742 21.6791 96.5942 22.5071 96.5942 23.2271V32.7311C96.5942 33.1871 96.4862 33.5231 96.2702 33.7391C96.0782 33.9311 95.7542 34.0271 95.2982 34.0271H89.8622C89.3822 34.0271 89.0222 33.9311 88.7822 33.7391C88.5662 33.5231 88.4582 33.1871 88.4582 32.7311V27.6911H82.0862V32.7311Z" fill="#F7F7F8"/>
<path d="M107.735 34.0271H102.335C101.879 34.0271 101.543 33.9311 101.327 33.7391C101.135 33.5231 101.039 33.1871 101.039 32.7311V9.40306C101.039 8.94706 101.135 8.62306 101.327 8.43106C101.543 8.21506 101.879 8.10706 102.335 8.10706H106.079C106.535 8.10706 106.919 8.17906 107.231 8.32306C107.567 8.46706 107.891 8.71906 108.203 9.07906L115.187 17.0711V9.40306C115.187 8.94706 115.283 8.62306 115.475 8.43106C115.691 8.21506 116.027 8.10706 116.483 8.10706H121.883C122.339 8.10706 122.663 8.21506 122.855 8.43106C123.071 8.62306 123.179 8.94706 123.179 9.40306V32.7311C123.179 33.1871 123.071 33.5231 122.855 33.7391C122.663 33.9311 122.339 34.0271 121.883 34.0271H116.483C116.027 34.0271 115.691 33.9311 115.475 33.7391C115.283 33.5231 115.187 33.1871 115.187 32.7311V28.3031L109.031 20.8511V32.7311C109.031 33.1871 108.923 33.5231 108.707 33.7391C108.515 33.9311 108.191 34.0271 107.735 34.0271Z" fill="#F7F7F8"/>
<path d="M137.541 15.6671L135.849 21.1391H141.501L139.809 15.6671C139.713 15.4511 139.605 15.2951 139.485 15.1991C139.389 15.1031 139.269 15.0551 139.125 15.0551H138.225C138.081 15.0551 137.949 15.1031 137.829 15.1991C137.733 15.2951 137.637 15.4511 137.541 15.6671ZM135.489 32.7311C135.489 33.1871 135.381 33.5231 135.165 33.7391C134.973 33.9311 134.649 34.0271 134.193 34.0271H128.901C128.445 34.0271 128.109 33.9311 127.893 33.7391C127.701 33.5231 127.605 33.1871 127.605 32.7311V23.2271C127.605 22.5071 127.713 21.6791 127.929 20.7431C128.169 19.8071 128.529 18.7151 129.009 17.4671L132.141 9.29506C132.285 8.88705 132.501 8.58706 132.789 8.39506C133.101 8.20306 133.497 8.10706 133.977 8.10706H143.661C144.117 8.10706 144.489 8.20306 144.777 8.39506C145.089 8.58706 145.317 8.88705 145.461 9.29506L148.593 17.4671C149.073 18.7151 149.421 19.8071 149.637 20.7431C149.877 21.6791 149.997 22.5071 149.997 23.2271V32.7311C149.997 33.1871 149.889 33.5231 149.673 33.7391C149.481 33.9311 149.157 34.0271 148.701 34.0271H143.265C142.785 34.0271 142.425 33.9311 142.185 33.7391C141.969 33.5231 141.861 33.1871 141.861 32.7311V27.6911H135.489V32.7311Z" fill="#F7F7F8"/>
<path d="M40 5C40 7.76142 37.7614 10 35 10C32.2386 10 30 7.76142 30 5C30 2.23858 32.2386 0 35 0C37.7614 0 40 2.23858 40 5Z" fill="#77C487"/>
</svg>
