<svg xmlns="http://www.w3.org/2000/svg" xmlns:xlink="http://www.w3.org/1999/xlink" width="297" height="157" viewBox="0 0 297 157">
    <defs>
        <path id="prefix__a" d="M0 0.098L142.272 0.098 142.272 156.225 0 156.225z"/>
    </defs>
    <g fill="none" fill-rule="evenodd" opacity=".08">
        <path fill="#608AA4" d="M161.981 156.23L261.661 156.23 261.661 89.137 161.981 89.137z"/>
        <path fill="#608AA4" d="M177.622 54.192c2.902 0 5.164 2.386 5.164 5.276 0 2.91-2.262 5.309-5.164 5.309-2.93 0-5.324-2.4-5.324-5.309 0-2.89 2.395-5.276 5.324-5.276zm22.626.225h23.396c2.718 0 4.95 2.093 4.95 4.747 0 2.665-2.232 4.801-4.95 4.801h-23.396c-2.609 0-4.82-2.136-4.82-4.8 0-2.655 2.211-4.748 4.82-4.748zM144.721 156.77V78.668c0-.532.106-.866.184-1.213 1.014-3.68 4.287-6.52 8.335-6.52h117.494c3.991 0 7.32 2.84 8.359 6.52.051.347.157.68.157 1.213v78.101h16.825V63.03c0-10.64-8.412-19.197-19.006-19.197H146.85c-10.597 0-19.058 8.558-19.058 19.197v93.74h16.928zM46.098 52.042c-.425-1.05-.932-1.984-1.541-2.917L26.162 56.07c-2.476.96-3.674 3.599-2.609 5.974l7.213 19.626c.772-.215 1.463-.32 2.13-.709 11.66-4.345 17.543-17.316 13.202-28.919M107.695 128.453c1.195 3.32 3.436 5.091 5.828 5.333v-11.92l-7.293 2.735 1.465 3.852z"/>
        <path fill="#608AA4" d="M92.547 100.588c-22.943 8.652-35.826 32.317-31.966 55.637h33.776l18.687-7.081c.136-.041.266-.171.48-.171v-9.12c-2.29-.507-4.26-1.775-5.644-3.534l-.052.106c0 2.92-1.89 5.385-5.004 7.532-3.942 2.8-7.719 5.292-8.786 6.506l-2.501-6.612c.799-.825 3.3-2.92 7.505-5.455 4.129-2.84 4.953-5.024 3.728-8.732l-1.225-3.186-14.587 5.48-2.341-6.425 28.907-10.986V97.494c-6.923-.453-14.054.44-20.977 3.094"/>
        <mask id="prefix__b" fill="#fff">
            <use xlink:href="#prefix__a"/>
        </mask>
        <path fill="#608AA4" d="M133.328 8.129c-2.422-6.44-9.53-9.67-15.812-7.2L8.009 42.35c-6.39 2.427-9.584 9.546-7.243 15.973l36.949 97.9h12.964l-36.815-97.7c-.905-2.624.24-5.612 2.983-6.627L117.169 13.94c2.53-.985 5.646.282 6.575 2.985l5.753 15.438c1.647-.382 3.246-.583 4.736-.583h8.039l-8.944-23.651z" mask="url(#prefix__b)"/>
        <path fill="#608AA4" d="M89.727 38.751c-.8-2.054-1.279-4.079-1.49-6.199L50.012 47.043c1.092 1.748 2.13 3.575 3.035 5.68 5.004 13.213-1.648 28.095-15.092 33.173-1.52.572-3.33 1.026-5.061 1.305l19.779 51.984c2.983-20.199 16.557-38.332 37.054-46.064 7.903-2.986 15.972-4.172 23.797-3.694V55.313c-10.247-.084-19.858-6.24-23.797-16.562"/>
        <path fill="#608AA4" d="M112.885 23.22l-19.22 7.295c.108 1.091.374 2.13.799 3.17 3.3 8.479 11.022 13.866 19.595 14.412 1.116-5.17 4.205-9.679 8.383-12.678l-3.593-9.507c-.827-2.386-3.514-3.653-5.964-2.693"/>
    </g>
</svg>
