<svg width="333" height="270" viewBox="0 0 333 270" fill="none" xmlns="http://www.w3.org/2000/svg">
<path d="M151.096 227.254L94.9896 249.701L29.8945 184.606L72.5421 178.437L151.096 227.254Z" fill="#77C487"/>
<path opacity="0.5" d="M151.096 227.254L94.9896 249.701L29.8945 184.606L72.5421 178.437L151.096 227.254Z" fill="#F7F7F8"/>
<path d="M220.113 256.998C227.55 256.998 233.58 252.978 233.58 248.018C233.58 243.058 227.55 239.037 220.113 239.037C212.675 239.037 206.646 243.058 206.646 248.018C206.646 252.978 212.675 256.998 220.113 256.998Z" fill="#77C487"/>
<path opacity="0.5" d="M220.113 256.998C227.55 256.998 233.58 252.978 233.58 248.018C233.58 243.058 227.55 239.037 220.113 239.037C212.675 239.037 206.646 243.058 206.646 248.018C206.646 252.978 212.675 256.998 220.113 256.998Z" fill="#F7F7F8"/>
<path d="M167.374 197.029L249.588 203.543L231.341 194.15L167.374 197.029Z" fill="#77C487"/>
<path opacity="0.5" d="M167.374 197.029L249.588 203.543L231.341 194.15L167.374 197.029Z" fill="#F7F7F8"/>
<path d="M185.89 171.703L161.499 169.708L164.562 166.089H178.593L185.89 171.703Z" fill="#77C487"/>
<path opacity="0.5" d="M185.89 171.703L161.499 169.708L164.562 166.089H178.593L185.89 171.703Z" fill="#F7F7F8"/>
<path d="M264.982 269.059C274.433 269.059 282.094 264.413 282.094 258.682C282.094 252.95 274.433 248.304 264.982 248.304C255.532 248.304 247.871 252.95 247.871 258.682C247.871 264.413 255.532 269.059 264.982 269.059Z" fill="#77C487"/>
<path opacity="0.5" d="M264.982 269.059C274.433 269.059 282.094 264.413 282.094 258.682C282.094 252.95 274.433 248.304 264.982 248.304C255.532 248.304 247.871 252.95 247.871 258.682C247.871 264.413 255.532 269.059 264.982 269.059Z" fill="#F7F7F8"/>
<path d="M163.586 234.584L154.37 249.726L174.78 253.682L182.684 238.54L163.586 234.584Z" fill="#F7F7F8" stroke="#494F50" stroke-linecap="round" stroke-linejoin="round"/>
<path d="M179.393 217.473L170.176 231.293L189.265 237.218L197.169 223.398L179.393 217.473Z" fill="#77C487"/>
<mask id="mask0_20_907" style="mask-type:luminance" maskUnits="userSpaceOnUse" x="170" y="217" width="28" height="21">
<path d="M179.393 217.473L170.176 231.293L189.265 237.218L197.169 223.398L179.393 217.473Z" fill="white"/>
</mask>
<g mask="url(#mask0_20_907)">
<path opacity="0.5" d="M179.393 217.473L170.176 231.293L189.265 237.218L197.169 223.398L179.393 217.473Z" fill="#F7F7F8" stroke="#494F50" stroke-miterlimit="10"/>
</g>
<path d="M179.393 217.473L170.176 231.293L189.265 237.218L197.169 223.398L179.393 217.473Z" stroke="#494F50" stroke-linecap="round" stroke-linejoin="round"/>
<path d="M199.803 243.809L183.34 248.413L189.922 258.95L209.02 254.338L199.803 243.809Z" fill="#77C487" stroke="#494F50" stroke-linecap="round" stroke-linejoin="round"/>
<path d="M246.769 241.106L248.452 253.891C248.452 259.186 254.891 263.487 262.837 263.487C270.782 263.487 277.229 259.186 277.229 253.891L278.963 241.106H246.769Z" fill="#77C487" stroke="#494F50" stroke-linecap="round" stroke-linejoin="round"/>
<path d="M262.853 251.855C271.755 251.855 278.971 247.043 278.971 241.107C278.971 235.171 271.755 230.358 262.853 230.358C253.952 230.358 246.735 235.171 246.735 241.107C246.735 247.043 253.952 251.855 262.853 251.855Z" fill="#77C487" stroke="#494F50" stroke-linecap="round" stroke-linejoin="round"/>
<path d="M262.853 250.247C270.426 250.247 276.564 246.155 276.564 241.106C276.564 236.058 270.426 231.966 262.853 231.966C255.281 231.966 249.143 236.058 249.143 241.106C249.143 246.155 255.281 250.247 262.853 250.247Z" fill="#77C487" stroke="#494F50" stroke-linecap="round" stroke-linejoin="round"/>
<path d="M262.854 250.256C270.296 250.256 276.329 246.902 276.329 242.765C276.329 238.628 270.296 235.274 262.854 235.274C255.411 235.274 249.378 238.628 249.378 242.765C249.378 246.902 255.411 250.256 262.854 250.256Z" fill="#494F50" stroke="#494F50" stroke-linecap="round" stroke-linejoin="round"/>
<path d="M267.71 216.572C265.37 215.065 261.818 215.2 260.396 217.986C258.292 222.043 259.798 229.559 259.041 230.611C258.283 231.663 256.036 231.966 254.984 229.711C253.932 227.455 253.932 224.45 252.577 224.299C251.222 224.147 249.42 224.753 249.117 228.212C248.814 231.672 249.42 235.577 251.828 237.378C254.235 239.179 256.937 238.582 257.719 239.339C258.502 240.097 257.719 241.275 257.719 242.05C257.719 245.416 262.121 247.1 264.907 246.258C268.964 245.054 268.518 240.989 269.116 239.339C269.713 237.69 273.029 237.53 274.233 234.979C275.437 232.429 277.238 227.303 274.679 225.351C272.12 223.398 270.168 224.299 269.873 226.403C269.523 228.074 268.957 229.692 268.19 231.217C269.991 227.657 271.758 219.181 267.71 216.572Z" fill="#77C487"/>
<mask id="mask1_20_907" style="mask-type:luminance" maskUnits="userSpaceOnUse" x="249" y="215" width="27" height="32">
<path d="M267.71 216.572C265.37 215.065 261.818 215.2 260.396 217.986C258.292 222.043 259.798 229.559 259.041 230.611C258.283 231.663 256.036 231.966 254.984 229.711C253.932 227.455 253.932 224.45 252.577 224.299C251.222 224.147 249.42 224.753 249.117 228.212C248.814 231.672 249.42 235.577 251.828 237.378C254.235 239.179 256.937 238.582 257.719 239.339C258.502 240.097 257.719 241.275 257.719 242.05C257.719 245.416 262.121 247.1 264.907 246.258C268.964 245.054 268.518 240.989 269.116 239.339C269.713 237.69 273.029 237.53 274.233 234.979C275.437 232.429 277.238 227.303 274.679 225.351C272.12 223.398 270.168 224.299 269.873 226.403C269.523 228.074 268.957 229.692 268.19 231.217C269.991 227.657 271.758 219.181 267.71 216.572Z" fill="white"/>
</mask>
<g mask="url(#mask1_20_907)">
<path opacity="0.2" d="M267.71 216.572C265.37 215.065 261.818 215.2 260.396 217.986C258.292 222.043 259.798 229.559 259.041 230.611C258.283 231.663 256.036 231.966 254.984 229.711C253.932 227.455 253.932 224.45 252.577 224.299C251.222 224.147 249.42 224.753 249.117 228.212C248.814 231.672 249.42 235.577 251.828 237.378C254.235 239.179 256.937 238.582 257.719 239.339C258.502 240.097 257.719 241.275 257.719 242.05C257.719 245.416 262.121 247.1 264.907 246.258C268.964 245.054 268.518 240.989 269.116 239.339C269.713 237.69 273.029 237.53 274.233 234.979C275.437 232.429 277.238 227.303 274.679 225.351C272.12 223.398 270.168 224.299 269.873 226.403C269.523 228.074 268.957 229.692 268.19 231.217C269.991 227.657 271.758 219.181 267.71 216.572Z" fill="#2D2D34"/>
</g>
<path d="M267.71 216.572C265.37 215.065 261.818 215.2 260.396 217.986C258.292 222.043 259.798 229.559 259.041 230.611C258.283 231.663 256.036 231.966 254.984 229.711C253.932 227.455 253.932 224.45 252.577 224.299C251.222 224.147 249.42 224.753 249.117 228.212C248.814 231.672 249.42 235.577 251.828 237.378C254.235 239.179 256.937 238.582 257.719 239.339C258.502 240.097 257.719 241.275 257.719 242.05C257.719 245.416 262.121 247.1 264.907 246.258C268.964 245.054 268.518 240.989 269.116 239.339C269.713 237.69 273.029 237.53 274.233 234.979C275.437 232.429 277.238 227.303 274.679 225.351C272.12 223.398 270.168 224.299 269.873 226.403C269.523 228.074 268.957 229.692 268.19 231.217C269.991 227.657 271.758 219.181 267.71 216.572Z" stroke="#494F50" stroke-linecap="round" stroke-linejoin="round"/>
<path d="M264.006 217.683C263.324 218.132 262.752 218.731 262.335 219.434C261.918 220.136 261.666 220.925 261.599 221.739C261.448 224.45 261.599 233.018 260.547 234.222C259.495 235.425 256.036 235.122 253.814 233.018C251.592 230.914 252.576 226.411 252.576 226.411" stroke="#494F50" stroke-width="0.5" stroke-linecap="round" stroke-linejoin="round"/>
<path d="M253.242 235.67C254.021 236.277 254.923 236.707 255.885 236.932C258.595 237.53 260.547 236.183 261.002 237.53C261.456 238.877 260.547 243.699 260.547 243.699" stroke="#494F50" stroke-width="0.5" stroke-linecap="round" stroke-linejoin="round"/>
<path d="M251.676 234.07C251.956 234.465 252.278 234.829 252.635 235.156" stroke="#494F50" stroke-width="0.5" stroke-linecap="round" stroke-linejoin="round"/>
<path d="M263.956 241.233C264.108 238.992 264.125 236.744 264.007 234.5C263.737 231.133 265.303 224.88 265.69 222.052" stroke="#494F50" stroke-width="0.5" stroke-linecap="round" stroke-linejoin="round"/>
<path d="M263.704 244.751C263.704 244.751 263.788 243.834 263.88 242.487" stroke="#494F50" stroke-width="0.5" stroke-linecap="round" stroke-linejoin="round"/>
<path d="M274.115 229.685C274.19 228.953 274.233 228.507 274.233 228.507" stroke="#494F50" stroke-width="0.5" stroke-linecap="round" stroke-linejoin="round"/>
<path d="M267.011 242.041C267.011 242.041 267.617 237.084 268.821 236.15C270.024 235.215 273.475 234.643 273.778 232.387C273.829 232.034 273.871 231.697 273.913 231.386" stroke="#494F50" stroke-width="0.5" stroke-linecap="round" stroke-linejoin="round"/>
<path d="M272.129 226.555C271.813 226.766 271.562 227.06 271.401 227.404C271.241 227.748 271.178 228.13 271.22 228.507C271.281 229.408 271.089 230.309 270.665 231.106C270.241 231.904 269.602 232.566 268.821 233.019" stroke="#494F50" stroke-width="0.5" stroke-linecap="round" stroke-linejoin="round"/>
<path d="M265.858 220.335C265.903 219.493 265.886 218.649 265.808 217.81" stroke="#494F50" stroke-width="0.5" stroke-linecap="round" stroke-linejoin="round"/>
<path d="M208.54 217.035L210.77 240.518V243.001C210.77 246.367 215.501 249.036 221.342 249.036C227.183 249.036 231.913 246.334 231.913 243.001V240.518L233.942 216.791L208.54 217.035Z" fill="#F7F7F8" stroke="#494F50" stroke-linecap="round" stroke-linejoin="round"/>
<path d="M232.014 239.247L233.184 225.57C231.61 228.019 226.914 229.778 221.359 229.778C215.509 229.778 210.619 227.808 209.314 225.157L210.644 239.163C212.799 240.955 216.78 242.167 221.359 242.167C225.938 242.167 229.86 241.014 232.014 239.247Z" fill="#77C487" stroke="#494F50" stroke-linecap="round" stroke-linejoin="round"/>
<path d="M208.961 221.462V221.302L208.852 220.359L208.961 221.462Z" fill="#F7F7F8" stroke="#494F50" stroke-linecap="round" stroke-linejoin="round"/>
<path d="M234.346 213.551C232.107 210.723 227.133 208.745 221.342 208.745C215.551 208.745 210.577 210.723 208.33 213.551H207.059V216.918C207.059 221.429 213.455 225.082 221.367 225.082C229.279 225.082 235.676 221.429 235.676 216.918V213.551H234.346Z" fill="#77C487" stroke="#494F50" stroke-linecap="round" stroke-linejoin="round"/>
<path opacity="0.2" d="M234.346 213.551C232.107 210.723 227.133 208.745 221.342 208.745C215.551 208.745 210.577 210.723 208.33 213.551H207.059V216.918C207.059 221.429 213.455 225.082 221.367 225.082C229.279 225.082 235.676 221.429 235.676 216.918V213.551H234.346Z" fill="#2D2D34"/>
<path d="M221.342 221.715C229.23 221.715 235.625 218.06 235.625 213.551C235.625 209.042 229.23 205.387 221.342 205.387C213.453 205.387 207.059 209.042 207.059 213.551C207.059 218.06 213.453 221.715 221.342 221.715Z" fill="#F7F7F8" stroke="#494F50" stroke-linecap="round" stroke-linejoin="round"/>
<path d="M232.705 208.997C230.743 206.523 226.4 204.789 221.342 204.789C216.283 204.789 211.94 206.514 209.979 208.997H208.894V211.926C208.894 215.865 214.474 219.055 221.367 219.055C228.26 219.055 233.841 215.865 233.841 211.926V208.997H232.705Z" fill="#77C487" stroke="#494F50" stroke-linecap="round" stroke-linejoin="round"/>
<path d="M221.342 216.126C228.231 216.126 233.815 212.934 233.815 208.997C233.815 205.06 228.231 201.868 221.342 201.868C214.453 201.868 208.868 205.06 208.868 208.997C208.868 212.934 214.453 216.126 221.342 216.126Z" fill="#F7F7F8" stroke="#494F50" stroke-linecap="round" stroke-linejoin="round"/>
<path d="M95.4443 139.77C95.4443 139.77 96.4207 139.122 102.615 141.723C108.81 144.323 111.243 143.759 117.269 142.699C124.507 141.436 130.517 140.174 131.241 143.103C132.495 148.153 127.428 148.094 118.313 149.07C109.197 150.047 103.912 147.261 100.983 145.956C99.6343 145.403 98.329 144.75 97.0772 144.004L95.4443 139.77Z" fill="#F7F7F8" stroke="#494F50" stroke-linecap="round" stroke-linejoin="round"/>
<path d="M81.4386 142.379C81.4386 142.379 89.586 151.823 93.1631 149.214C96.7402 146.605 96.4204 138.146 93.1631 135.537C89.9059 132.927 80.7905 137.818 81.4386 142.379Z" fill="#F7F7F8" stroke="#494F50" stroke-linecap="round" stroke-linejoin="round"/>
<path d="M106.209 116.321C106.209 116.321 106.538 125.116 104.257 130.975C101.976 136.833 97.742 140.746 97.0939 144.004C96.4459 147.261 96.7657 151.823 93.5084 153.127C90.2511 154.432 90.2511 152.151 90.5794 149.542C90.9076 146.933 91.5557 137.169 91.5557 137.169L80.7907 143.675C80.7907 143.675 83.7197 151.823 77.5334 152.799C71.3471 153.775 63.8562 144.332 62.8799 137.194C61.9036 130.057 65.8089 114.065 72.6517 109.832C79.4946 105.598 88.2816 106.255 92.8519 106.255C97.4222 106.255 104.24 109.487 106.209 116.321Z" fill="#F7F7F8" stroke="#494F50" stroke-linecap="round" stroke-linejoin="round"/>
<path d="M80.2436 107.282C80.2436 107.282 78.5602 108.123 75.6228 112.744C72.6853 117.365 78.5602 121.346 81.7165 119.25C84.8728 117.154 82.1289 112.744 84.4435 110.64C85.7751 109.51 86.6685 107.95 86.9686 106.229L80.2436 107.282Z" fill="#494F50"/>
<path d="M70.8002 113.788C70.0476 114.325 69.4156 115.014 68.9446 115.81C68.4736 116.605 68.1739 117.491 68.0647 118.409C67.8543 121.346 73.1148 115.884 73.7376 113.359C74.3605 110.834 70.8002 113.788 70.8002 113.788Z" fill="#494F50"/>
<path d="M89.586 107.205C88.839 108.562 88.475 110.097 88.5328 111.644C88.5906 113.192 89.0682 114.695 89.9143 115.993C92.8433 120.554 99.3579 122.507 101.959 119.25C104.559 115.993 105.544 114.368 104.568 112.744C103.591 111.119 94.1479 104.596 89.586 107.205Z" fill="#77C487" stroke="#494F50" stroke-linecap="round" stroke-linejoin="round"/>
<path d="M113.684 91.2471C112.447 91.3814 111.197 91.2471 110.017 90.8534C108.838 90.4598 107.757 89.816 106.849 88.9662C103.592 86.0371 100.654 79.5226 99.3582 79.8424C98.062 80.1623 93.4665 89.6143 93.4665 89.6143C93.4665 89.6143 85.6473 90.2708 84.9993 92.5433C84.3512 94.8158 87.9283 105.572 90.891 110.134C92.2725 112.166 94.1118 113.845 96.2607 115.037C98.4097 116.228 100.808 116.899 103.264 116.994C107.169 116.994 118.893 117.97 120.526 114.056C122.159 110.143 120.846 98.4266 120.846 98.4266C120.846 98.4266 126.065 93.2166 123.784 92.2403C121.503 91.2639 113.684 91.2471 113.684 91.2471Z" fill="#F7F7F8" stroke="#494F50" stroke-linecap="round" stroke-linejoin="round"/>
<path d="M112.101 107.542C111.705 107.029 111.327 106.507 110.956 105.968C110.342 105.059 108.886 103.67 106.083 104.554C102.093 105.808 99.3495 109.604 103.777 112.744C107.943 115.732 116.309 113.038 112.101 107.542Z" fill="#494F50"/>
<path d="M93.4915 89.6146C93.4915 89.6146 98.0534 92.2238 100.654 91.2475C103.255 90.2711 101.631 79.1947 99.358 79.8428C97.0855 80.4909 93.1633 85.381 93.4915 89.6146Z" fill="#F7F7F8" stroke="#494F50" stroke-linecap="round" stroke-linejoin="round"/>
<path d="M123.783 92.2239C123.783 92.2239 119.575 91.8956 116.94 94.8247C114.306 97.7537 115.964 100.716 119.55 101.339C123.135 101.962 125.079 92.2239 123.783 92.2239Z" fill="#F7F7F8" stroke="#494F50" stroke-linecap="round" stroke-linejoin="round"/>
<path d="M98.3816 110.463C98.3816 110.463 94.1732 107.205 95.1243 109.806C96.0754 112.407 97.7251 112.743 99.3327 112.087C100.94 111.43 98.3816 110.463 98.3816 110.463Z" fill="#77C487" stroke="#494F50" stroke-linecap="round" stroke-linejoin="round"/>
<path d="M96.0589 102.298C95.8149 103.14 95.1247 103.729 94.5187 103.561C93.9127 103.392 93.6181 102.551 93.8622 101.684C94.1063 100.817 94.7964 100.253 95.4024 100.421C96.0084 100.59 96.303 101.44 96.0589 102.298Z" fill="#494F50"/>
<path d="M106.1 109.983C105.317 110.438 104.417 110.371 104.114 109.824C103.811 109.276 104.164 108.477 104.955 108.022C105.244 107.792 105.61 107.68 105.978 107.708C106.347 107.736 106.691 107.903 106.942 108.174C107.245 108.721 106.874 109.529 106.1 109.983Z" fill="#F7F7F8"/>
<path d="M76.8854 130.654C76.8854 130.654 75.9091 137.817 77.2052 140.755C78.5014 143.692 79.8144 154.76 82.4236 155.063C85.0328 155.366 84.0481 149.171 84.0481 148.22C84.0481 147.269 84.3763 136.824 84.3763 136.824C84.3763 136.824 86.6572 131.934 87.9534 129.333" fill="#F7F7F8"/>
<path d="M76.8854 130.654C76.8854 130.654 75.9091 137.817 77.2052 140.755C78.5014 143.692 79.8144 154.76 82.4236 155.063C85.0328 155.366 84.0481 149.171 84.0481 148.22C84.0481 147.269 84.3763 136.824 84.3763 136.824C84.3763 136.824 86.6572 131.934 87.9534 129.333" stroke="#494F50" stroke-linecap="round" stroke-linejoin="round"/>
<path d="M66.1372 130.326C66.1372 130.326 74.9327 127.717 75.909 137.489" stroke="#494F50" stroke-linecap="round" stroke-linejoin="round"/>
<path d="M91.5391 137.195C91.5391 137.195 99.03 133.281 99.3582 124.813" stroke="#494F50" stroke-linecap="round" stroke-linejoin="round"/>
<path d="M1 150.518L6.54663 149.264" stroke="#494F50" stroke-linecap="round" stroke-linejoin="round"/>
<path d="M47.292 183.251L92.0185 170.567C93.4402 170.416 94.8703 170.761 96.067 171.543L168.847 218.046C169.157 218.246 169.398 218.537 169.537 218.879C169.676 219.221 169.707 219.597 169.625 219.957C169.544 220.317 169.353 220.643 169.08 220.892C168.807 221.14 168.464 221.298 168.097 221.345L106.891 240.409L47.292 183.251Z" fill="#77C487" stroke="#494F50" stroke-linecap="round" stroke-linejoin="round"/>
<path d="M73.4429 185.927L79.7807 190.296L87.1032 188.225L80.7738 183.865L73.4429 185.927Z" fill="#494F50"/>
<path d="M77.3903 198.14L71.061 193.771L63.73 195.842L70.0678 200.21L77.3903 198.14Z" fill="#494F50"/>
<path d="M89.3672 188.604L95.6966 192.964L103.019 190.893L96.6897 186.533L89.3672 188.604Z" fill="#494F50"/>
<path d="M96.749 193.688L103.078 198.048L110.401 195.977L104.072 191.617L96.749 193.688Z" fill="#494F50"/>
<path d="M80.8242 191.011L87.1536 195.38L94.4762 193.309L88.1468 188.949L80.8242 191.011Z" fill="#494F50"/>
<path d="M64.8999 188.343L71.2293 192.711L78.5603 190.641L72.2225 186.272L64.8999 188.343Z" fill="#494F50"/>
<path d="M115.442 216.06L109.105 211.691L101.791 213.762L108.12 218.13L115.442 216.06Z" fill="#494F50"/>
<path d="M106.891 218.475L100.562 214.106L93.2393 216.177L99.5771 220.537L106.891 218.475Z" fill="#494F50"/>
<path d="M84.7633 203.224L78.4339 198.855L71.1113 200.926L77.4407 205.286L84.7633 203.224Z" fill="#494F50"/>
<path d="M122.816 221.143L116.486 216.783L109.164 218.845L115.493 223.214L122.816 221.143Z" fill="#494F50"/>
<path d="M92.1447 208.308L85.8069 203.939L78.4844 206.01L84.8222 210.37L92.1447 208.308Z" fill="#494F50"/>
<path d="M99.5182 213.392L93.1888 209.023L85.8662 211.094L92.1956 215.462L99.5182 213.392Z" fill="#494F50"/>
<path d="M104.122 198.772L110.451 203.132L117.774 201.061L111.445 196.701L104.122 198.772Z" fill="#494F50"/>
<path d="M72.2812 193.426L78.6106 197.795L85.9332 195.724L79.6038 191.364L72.2812 193.426Z" fill="#494F50"/>
<path d="M131.358 218.727L125.029 214.367L117.707 216.438L124.036 220.798L131.358 218.727Z" fill="#494F50"/>
<path d="M109.231 203.476L102.902 199.116L95.5791 201.178L101.908 205.547L109.231 203.476Z" fill="#494F50"/>
<path d="M93.3062 200.808L86.9769 196.439L79.6543 198.51L85.9837 202.878L93.3062 200.808Z" fill="#494F50"/>
<path d="M62.6356 187.973L58.9323 185.414L53.9243 186.82L56.8533 189.606L62.6356 187.973Z" fill="#494F50"/>
<path d="M70.0088 193.057L63.6794 188.688L57.6782 190.389L62.6357 195.085L62.6862 195.119L70.0088 193.057Z" fill="#494F50"/>
<path d="M88.1973 196.104L94.5351 200.464L101.858 198.393L95.5198 194.033L88.1973 196.104Z" fill="#494F50"/>
<path d="M100.688 205.892L94.3587 201.532L87.0361 203.594L93.3655 207.963L100.688 205.892Z" fill="#494F50"/>
<path d="M132.528 211.228L126.199 206.868L118.876 208.939L125.206 213.299L132.528 211.228Z" fill="#494F50"/>
<path d="M111.495 203.855L117.833 208.215L125.155 206.144L118.826 201.784L111.495 203.855Z" fill="#494F50"/>
<path d="M123.985 213.644L117.656 209.284L110.333 211.355L116.663 215.715L123.985 213.644Z" fill="#494F50"/>
<path d="M116.604 208.56L110.275 204.2L102.952 206.262L109.29 210.631L116.604 208.56Z" fill="#494F50"/>
<path d="M108.061 210.976L101.732 206.616L94.4092 208.678L100.739 213.047L108.061 210.976Z" fill="#494F50"/>
<path d="M76.2205 205.631L69.8911 201.271L69.3271 201.431L74.3183 206.17L76.2205 205.631Z" fill="#494F50"/>
<path d="M132.41 219.451L125.088 221.522L132.68 226.748L139.817 224.552L132.41 219.451Z" fill="#494F50"/>
<path d="M123.859 221.867L116.537 223.929L124.356 229.316L131.485 227.119L123.859 221.867Z" fill="#494F50"/>
<path d="M90.9748 215.798L84.6454 211.438L80.9673 212.474L85.9668 217.221L90.9748 215.798Z" fill="#494F50"/>
<path d="M139.91 216.312L133.572 211.952L126.25 214.023L132.587 218.383L139.91 216.312Z" fill="#494F50"/>
<path d="M98.3482 220.891L92.0188 216.522L86.792 218.004L91.7831 222.742L98.3482 220.891Z" fill="#494F50"/>
<path d="M105.73 225.975L99.4002 221.606L92.6079 223.525L97.6075 228.264L105.73 225.975Z" fill="#494F50"/>
<path d="M114.273 223.559L107.943 219.19L100.621 221.261L106.95 225.629L114.273 223.559Z" fill="#494F50"/>
<path d="M155.632 216.708L151.424 214.073L142.166 216.691L149.32 221.623L154.892 219.94C155.259 219.908 155.606 219.76 155.884 219.518C156.162 219.276 156.356 218.952 156.438 218.593C156.52 218.234 156.487 217.858 156.342 217.519C156.197 217.181 155.949 216.896 155.632 216.708Z" fill="#494F50"/>
<path d="M106.773 226.689L98.4321 229.046L104.997 235.275L114.836 232.245L106.773 226.689Z" fill="#494F50"/>
<path d="M143.613 209.115L134.801 211.607L141.13 215.966L150.347 213.366L143.613 209.115Z" fill="#494F50"/>
<path d="M140.953 217.036L133.631 219.107L141.004 224.19L148.141 221.994L140.953 217.036Z" fill="#494F50"/>
<path d="M89.4937 180.381L95.478 178.689L91.6147 176.248L85.8408 177.864L89.4937 180.381Z" fill="#494F50"/>
<path d="M123.161 229.686L115.316 224.274L107.994 226.345L116.023 231.883L123.161 229.686Z" fill="#494F50"/>
<path d="M90.5371 181.105L96.8665 185.465L103.322 183.647L96.5887 179.396L90.5371 181.105Z" fill="#494F50"/>
<path d="M105.292 191.272L111.621 195.632L118.994 193.553L112.269 189.303L105.292 191.272Z" fill="#494F50"/>
<path d="M97.9102 186.188L104.248 190.548L111.158 188.595L104.425 184.345L97.9102 186.188Z" fill="#494F50"/>
<path d="M112.665 196.356L118.994 200.716L126.83 198.511L120.105 194.252L112.665 196.356Z" fill="#494F50"/>
<path d="M120.046 201.439L126.376 205.799L134.666 203.459L127.941 199.209L120.046 201.439Z" fill="#494F50"/>
<path d="M135.777 204.158L127.419 206.523L133.749 210.883L142.502 208.417L135.777 204.158Z" fill="#494F50"/>
<path d="M81.9941 183.52L88.3235 187.88L95.6461 185.809L89.3167 181.449L81.9941 183.52Z" fill="#494F50"/>
<path d="M67.2061 199.428L68.5022 200.648L68.8389 200.547L67.2061 199.428Z" fill="#494F50"/>
<path d="M63.8562 187.628L71.1788 185.557L67.4922 183.016L60.1528 185.069L63.8562 187.628Z" fill="#494F50"/>
<path d="M72.3989 185.212L79.7215 183.142L76.0518 180.608L68.7124 182.671L72.3989 185.212Z" fill="#494F50"/>
<path d="M77.2808 180.271L80.9505 182.796L88.273 180.726L84.6117 178.209L77.2808 180.271Z" fill="#494F50"/>
<path d="M83.5935 210.723L77.2641 206.354L75.1431 206.952L80.1426 211.691L83.5935 210.723Z" fill="#494F50"/>
<path d="M106.849 240.409L87.4904 162.041C87.0494 160.259 86.0988 158.644 84.7549 157.395L32.5711 108.737C32.3494 108.531 32.0674 108.402 31.7666 108.368C31.4658 108.334 31.1621 108.398 30.9002 108.55C30.6383 108.701 30.4319 108.933 30.3115 109.211C30.1911 109.489 30.163 109.798 30.2313 110.092L47.292 183.251L106.849 240.409Z" fill="#77C487" stroke="#494F50" stroke-linecap="round" stroke-linejoin="round"/>
<path d="M77.5923 154.188L83.5598 159.406C83.5598 159.406 85.4198 159.776 87.2799 169.094" stroke="#494F50" stroke-width="0.5" stroke-linecap="round" stroke-linejoin="round"/>
<path d="M88.3994 173.934L99.4001 221.606" stroke="#494F50" stroke-width="0.5" stroke-linecap="round" stroke-linejoin="round"/>
<path d="M56.1885 152.058C58.7724 158.337 58.5368 164.389 55.6582 165.576C52.7797 166.762 48.3441 162.63 45.7602 156.317C43.1762 150.005 43.4119 143.987 46.2904 142.808C49.1689 141.63 53.6046 145.78 56.1885 152.058Z" fill="#77C487"/>
<path opacity="0.6" d="M56.1885 152.058C58.7724 158.337 58.5368 164.389 55.6582 165.576C52.7797 166.762 48.3441 162.63 45.7602 156.317C43.1762 150.005 43.4119 143.987 46.2904 142.808C49.1689 141.63 53.6046 145.78 56.1885 152.058Z" fill="#F7F7F8"/>
<path d="M54.3028 162.291C56.3488 161.448 56.5167 157.145 54.6778 152.679C52.8389 148.213 49.6896 145.276 47.6436 146.118C45.5976 146.961 45.4297 151.264 47.2686 155.73C49.1075 160.196 52.2568 163.133 54.3028 162.291Z" stroke="#494F50" stroke-miterlimit="10"/>
<path d="M60.1783 177.806C61.525 181.063 60.9695 184.379 58.9494 185.212C56.9294 186.046 54.2024 184.076 52.8557 180.827C51.509 177.578 52.073 174.254 54.093 173.421C56.113 172.587 58.84 174.557 60.1783 177.806Z" fill="#494F50"/>
<path d="M57.392 183.318C56.1211 183.318 54.7407 182.165 54.0253 180.364C53.6225 179.438 53.4827 178.419 53.6213 177.418C53.6583 177.001 53.8035 176.601 54.0427 176.257C54.2818 175.913 54.6066 175.637 54.9848 175.457C56.4072 174.868 58.2253 176.105 59.1174 178.268C60.0012 180.431 59.5804 182.586 58.1579 183.175C57.9142 183.272 57.6541 183.32 57.392 183.318ZM55.7087 176.156C55.5641 176.154 55.4208 176.183 55.2878 176.24C55.046 176.369 54.8415 176.559 54.6941 176.79C54.5467 177.022 54.4613 177.287 54.4461 177.561C54.3258 178.419 54.4482 179.294 54.7996 180.086C55.4814 181.77 56.8702 182.83 57.8297 182.435C58.7892 182.039 59.0164 180.297 58.3263 178.63C57.695 177.157 56.5503 176.156 55.7087 176.156Z" fill="#77C487"/>
<g opacity="0.5">
<path d="M57.392 183.318C56.1211 183.318 54.7407 182.165 54.0253 180.364C53.6225 179.438 53.4827 178.419 53.6213 177.418C53.6583 177.001 53.8035 176.601 54.0427 176.257C54.2818 175.913 54.6066 175.637 54.9848 175.457C56.4072 174.868 58.2253 176.105 59.1174 178.268C60.0012 180.431 59.5804 182.586 58.1579 183.175C57.9142 183.272 57.6541 183.32 57.392 183.318ZM55.7087 176.156C55.5641 176.154 55.4208 176.183 55.2878 176.24C55.046 176.369 54.8415 176.559 54.6941 176.79C54.5467 177.022 54.4613 177.287 54.4461 177.561C54.3258 178.419 54.4482 179.294 54.7996 180.086C55.4814 181.77 56.8702 182.83 57.8297 182.435C58.7892 182.039 59.0164 180.297 58.3263 178.63C57.695 177.157 56.5503 176.156 55.7087 176.156Z" fill="#F7F7F8"/>
</g>
<path d="M75.1849 178.849L70.3958 186.424C70.2724 186.608 70.2065 186.825 70.2065 187.047C70.2065 187.268 70.2724 187.485 70.3958 187.669L80.6474 202.618C80.7372 202.75 80.8538 202.863 80.9898 202.947C81.1258 203.032 81.278 203.087 81.4367 203.11C81.5953 203.132 81.7569 203.121 81.9109 203.076C82.0649 203.032 82.208 202.956 82.3308 202.853L87.6417 198.519C87.8534 198.348 87.9963 198.107 88.0442 197.839C88.0922 197.572 88.0419 197.296 87.9026 197.063L77.1208 178.891C77.0244 178.721 76.8856 178.579 76.718 178.48C76.5505 178.38 76.3599 178.325 76.1648 178.321C75.9697 178.316 75.7769 178.363 75.6052 178.455C75.4334 178.548 75.2886 178.683 75.1849 178.849Z" fill="#494F50"/>
<path d="M66.8528 188.89C66.8528 188.89 80.1175 186.685 89.2329 205.37L91.497 202.584C91.497 202.584 82.7183 187.964 75.5641 186.66C68.4099 185.355 65.8091 185.347 65.8091 185.347L66.8528 188.89Z" fill="#77C487"/>
<path opacity="0.5" d="M66.8528 188.89C66.8528 188.89 80.1175 186.685 89.2329 205.37L91.497 202.584C91.497 202.584 82.7183 187.964 75.5641 186.66C68.4099 185.355 65.8091 185.347 65.8091 185.347L66.8528 188.89Z" fill="#F7F7F8"/>
<path d="M9.64404 148.566L31.2919 143.676" stroke="#494F50" stroke-linecap="round" stroke-linejoin="round"/>
<path d="M147.089 195.699C144.494 196.109 141.878 196.37 139.253 196.482C135.188 196.642 133.463 196.642 134.085 197.585C134.708 198.527 139.573 199.461 141.29 199.773C143.007 200.084 147.089 195.699 147.089 195.699Z" fill="#F7F7F8" stroke="#494F50" stroke-miterlimit="10"/>
<path d="M299.735 229.745L292.488 225.957" stroke="#494F50" stroke-linecap="round" stroke-linejoin="round"/>
<path d="M154.976 141.285C154.976 141.285 156.499 138.617 157.139 141.925L154.976 141.285Z" fill="#494F50"/>
<path d="M288.003 223.609L111.318 131.303" stroke="#494F50" stroke-linecap="round" stroke-linejoin="round"/>
<path d="M115.964 167.453L153.091 191.39L183.627 178.934L142.494 158.026L115.964 167.453Z" fill="#494F50" stroke="#494F50" stroke-linecap="round" stroke-linejoin="round"/>
<path d="M139.826 162.462L125.029 167.689" stroke="#F7F7F8" stroke-width="0.5" stroke-linecap="round" stroke-linejoin="round"/>
<path d="M127.352 169.431L154.05 186.264L175.807 177.847" stroke="#F7F7F8" stroke-width="0.5" stroke-linecap="round" stroke-linejoin="round"/>
<path d="M268.938 54.3398C268.938 54.3398 290.199 57.7065 297.042 69.1028C303.885 80.4991 298.994 98.4099 296.713 104.596C294.651 110.21 300.745 114.898 304.491 117.945C312.907 124.78 317.242 134.425 312.865 144.921C310.138 151.452 298.01 154.381 299.651 162.242C301.292 170.104 308.438 181.13 299.323 189.277C289.702 197.862 275.268 193.435 266.834 185.414C257.348 176.391 254.083 160.694 258.939 148.565C264.831 133.912 268.054 124.468 262.516 118.265C256.978 112.062 249.815 108.165 249.815 99.3778C249.815 90.5908 257.635 87.9816 260.892 79.1777C264.149 70.3737 259.587 61.2668 259.587 61.2668L268.938 54.3398Z" fill="#494F50" stroke="#494F50" stroke-linecap="round" stroke-linejoin="round"/>
<path d="M288.852 69.541C292.96 72.6468 296.697 77.8736 295.401 86.3745C292.775 103.629 280.023 104.757 288.272 115.631C296.52 126.506 304.028 121.624 302.521 135.124C301.015 148.625 296.15 153.498 296.15 153.498" stroke="#F7F7F8" stroke-miterlimit="10"/>
<path d="M280.057 65.3916C281.701 65.7783 283.299 66.3427 284.821 67.0749" stroke="#F7F7F8" stroke-miterlimit="10"/>
<path d="M275.933 70.2734C275.933 70.2734 286.807 73.2698 290.182 82.2673C293.557 91.2648 280.082 98.7725 279.308 104.395" stroke="#F7F7F8" stroke-miterlimit="10"/>
<path d="M275.453 217.052C275.302 211.893 275.234 205.008 275.546 197.744C276.202 182.762 294.113 162.89 294.761 159.313C295.409 155.736 293.785 155.105 293.785 155.105L258.283 139.795C241.778 150.636 237.763 182.165 236.778 196.877L275.453 217.052Z" fill="#77C487" stroke="#494F50" stroke-linecap="round" stroke-linejoin="round"/>
<path d="M289.93 156.057C289.93 156.057 292.909 157.917 289.93 160.896C286.95 163.876 278.752 176.543 275.386 183.992" stroke="#494F50" stroke-width="0.5" stroke-linecap="round" stroke-linejoin="round"/>
<path d="M273.913 187.695C273.913 187.695 271.304 193.654 271.683 199.613C272.061 205.572 272.053 211.161 272.053 211.161" stroke="#494F50" stroke-width="0.5" stroke-linecap="round" stroke-linejoin="round"/>
<path d="M204.272 147.968C205.838 152.042 207.723 160.804 206.469 165.812C205.821 168.413 203.65 173.875 201.722 178.529L249.588 203.544C249.538 193.579 249.664 177.848 250.935 174.927C252.812 170.542 267.844 129.216 266.927 119.823C266.009 110.43 247.829 96.9629 247.829 96.9629L250.615 74.0693L234.026 84.0937C234.026 84.0937 232.14 93.1669 230.263 95.3637C228.386 97.5605 213.043 100.683 208.658 106.305C204.272 111.928 205.838 129.165 205.838 130.1C205.838 131.034 202.707 143.928 204.272 147.968Z" fill="#F7F7F8"/>
<mask id="mask2_20_907" style="mask-type:luminance" maskUnits="userSpaceOnUse" x="201" y="74" width="66" height="130">
<path d="M204.272 147.968C205.838 152.042 207.723 160.804 206.469 165.812C205.821 168.413 203.65 173.875 201.722 178.529L249.588 203.544C249.538 193.579 249.664 177.848 250.935 174.927C252.812 170.542 267.844 129.216 266.927 119.823C266.009 110.43 247.829 96.9629 247.829 96.9629L250.615 74.0693L234.026 84.0937C234.026 84.0937 232.14 93.1669 230.263 95.3637C228.386 97.5605 213.043 100.683 208.658 106.305C204.272 111.928 205.838 129.165 205.838 130.1C205.838 131.034 202.707 143.928 204.272 147.968Z" fill="white"/>
</mask>
<g mask="url(#mask2_20_907)">
<g style="mix-blend-mode:multiply" opacity="0.5">
<path d="M266.902 119.789C265.959 110.396 247.804 96.9292 247.804 96.9292L250.615 74.0693L234.026 84.0937C234.026 84.0937 233.479 86.7113 232.688 89.4804C233.756 89.3878 234.952 89.2363 236.29 89.0006C242.619 87.8812 245.978 85.6339 245.978 85.6339L242.611 99.7909C242.611 99.7909 259.747 109.891 264.217 122.146C264.823 123.829 265.471 125.403 266.136 126.969C266.702 124.619 266.96 122.205 266.902 119.789Z" fill="#77C487"/>
</g>
</g>
<path d="M204.272 147.968C205.838 152.042 207.723 160.804 206.469 165.812C205.821 168.413 203.65 173.875 201.722 178.529L249.588 203.544C249.538 193.579 249.664 177.848 250.935 174.927C252.812 170.542 267.844 129.216 266.927 119.823C266.009 110.43 247.829 96.9629 247.829 96.9629L250.615 74.0693L234.026 84.0937C234.026 84.0937 232.14 93.1669 230.263 95.3637C228.386 97.5605 213.043 100.683 208.658 106.305C204.272 111.928 205.838 129.165 205.838 130.1C205.838 131.034 202.707 143.928 204.272 147.968Z" stroke="#494F50" stroke-linecap="round" stroke-linejoin="round"/>
<path d="M204.272 147.968C205.838 152.042 207.723 160.804 206.469 165.811C205.821 168.412 203.65 173.875 201.722 178.529L249.588 203.544C249.538 193.578 249.664 177.847 250.935 174.927C252.812 170.542 267.844 129.215 266.927 119.822C266.346 113.973 259.091 106.558 253.696 101.785C248.385 107.416 236.862 117.92 228.445 113.241C220.87 109.032 221.35 102.635 222.469 98.8311C217.352 100.716 211.233 103.124 208.716 106.356C204.331 111.995 205.897 129.215 205.897 130.15C205.897 131.084 202.707 143.928 204.272 147.968Z" fill="#494F50" stroke="#494F50" stroke-linecap="round" stroke-linejoin="round"/>
<path d="M232.233 136.841L221.813 131.951C221.813 131.951 218.876 127.069 217.251 127.069C215.627 127.069 214.642 133.912 214.642 133.912C214.642 133.912 209.112 139.122 211.065 144.332C213.018 149.542 220.18 157.361 228.976 154.432C237.771 151.503 235.162 142.388 235.162 142.388C235.162 142.388 238.748 136.201 238.748 134.897C238.748 133.592 232.233 136.841 232.233 136.841Z" fill="#F7F7F8" stroke="#494F50" stroke-linecap="round" stroke-linejoin="round"/>
<path d="M209.912 35.8653C209.912 35.8653 212.109 47.1438 211.789 54.9713C211.469 62.7989 208.346 65.9131 209.264 69.3724C210.181 72.8316 221.476 85.6588 228.361 86.9044C235.246 88.1501 251.533 77.5114 256.229 72.8148C260.926 68.1183 261.549 61.2334 260.926 58.4138C260.303 55.5942 257.795 33.0541 248.402 23.9725C239.009 14.8908 214.297 15.8335 209.912 35.8653Z" fill="#F7F7F8"/>
<mask id="mask3_20_907" style="mask-type:luminance" maskUnits="userSpaceOnUse" x="209" y="18" width="53" height="70">
<path d="M209.912 35.8653C209.912 35.8653 212.109 47.1438 211.789 54.9713C211.469 62.7989 208.346 65.9131 209.264 69.3724C210.181 72.8316 221.476 85.6588 228.361 86.9044C235.246 88.1501 251.533 77.5114 256.229 72.8148C260.926 68.1183 261.549 61.2334 260.926 58.4138C260.303 55.5942 257.795 33.0541 248.402 23.9725C239.009 14.8908 214.297 15.8335 209.912 35.8653Z" fill="white"/>
</mask>
<g mask="url(#mask3_20_907)">
<g style="mix-blend-mode:multiply" opacity="0.5">
<path d="M248.452 23.9729C244.943 20.6062 239.286 18.5862 233.353 18.46L232.966 30.1424C232.966 30.1424 231.097 41.6902 237.805 50.9991C244.513 60.308 250.472 62.9256 251.213 66.6458C251.954 70.366 248.587 74.0694 240.036 80.4324C236.692 82.9633 233.109 85.162 229.338 86.9975C236.669 87.2584 251.777 77.3182 256.271 72.8153C260.968 68.1187 261.591 61.2338 260.968 58.4142C260.345 55.5946 257.82 33.0546 248.452 23.9729Z" fill="#77C487"/>
</g>
</g>
<path d="M209.912 35.8653C209.912 35.8653 212.109 47.1438 211.789 54.9713C211.469 62.7989 208.346 65.9131 209.264 69.3724C210.181 72.8316 221.476 85.6588 228.361 86.9044C235.246 88.1501 251.533 77.5114 256.229 72.8148C260.926 68.1183 261.549 61.2334 260.926 58.4138C260.303 55.5942 257.795 33.0541 248.402 23.9725C239.009 14.8908 214.297 15.8335 209.912 35.8653Z" stroke="#494F50" stroke-linecap="round" stroke-linejoin="round"/>
<path d="M221.813 59.0361C221.813 59.0361 220.87 64.9868 219.288 66.8637C220.517 67.9353 222.05 68.5947 223.673 68.749" stroke="#494F50" stroke-linecap="round" stroke-linejoin="round"/>
<path d="M222.436 74.0691C224.476 74.9733 226.699 75.3879 228.928 75.2797C231.156 75.1716 233.329 74.5437 235.272 73.4463" stroke="#494F50" stroke-linecap="round" stroke-linejoin="round"/>
<path d="M233.706 55.9052C233.706 56.9489 233.218 57.7906 232.612 57.7906C232.006 57.7906 231.518 56.9489 231.518 55.9052C231.518 54.8616 232.006 54.0283 232.612 54.0283C233.218 54.0283 233.706 54.87 233.706 55.9052Z" fill="#494F50"/>
<path d="M218.211 53.4062C218.211 54.4415 217.723 55.2832 217.117 55.2832C216.511 55.2832 216.022 54.4415 216.022 53.4062C216.022 52.371 216.511 51.5293 217.117 51.5293C217.723 51.5293 218.211 52.371 218.211 53.4062Z" fill="#494F50"/>
<path d="M213.985 45.2667C214.863 44.7186 215.843 44.3527 216.865 44.1908C217.887 44.0288 218.932 44.0741 219.936 44.324" stroke="#494F50" stroke-linecap="round" stroke-linejoin="round"/>
<path d="M228.698 45.5779C228.698 45.5779 230.575 44.6352 234.649 47.1434" stroke="#494F50" stroke-linecap="round" stroke-linejoin="round"/>
<path d="M230.575 27.4149C230.575 27.4149 221.813 34.6196 217.428 38.9963C213.043 43.3731 211.166 46.5125 204.592 43.7013C198.019 40.8901 193.314 31.1688 202.067 19.5873C210.821 8.00591 227.747 4.55504 244.336 9.25158C260.925 13.9481 267.827 24.5953 269.073 36.1852C270.319 47.775 267.81 60.6021 261.919 64.053C256.027 67.5038 242.813 53.4058 238.116 44.6356C235.173 39.093 232.652 33.3365 230.575 27.4149Z" fill="#494F50" stroke="#494F50" stroke-linecap="round" stroke-linejoin="round"/>
<path d="M230.575 27.415C230.575 27.415 206.932 30.8996 205.813 36.1432C204.693 41.3868 211.814 39.8971 211.814 39.8971" stroke="#F7F7F8" stroke-miterlimit="10"/>
<path d="M202.766 30.874C201.167 34.2912 202.438 36.5217 202.438 36.5217" stroke="#F7F7F8" stroke-miterlimit="10"/>
<path d="M254.184 16.2716C254.184 16.2716 231.307 12.5262 231.307 22.6431C231.307 22.6431 217.437 17.7698 208.439 24.5201C207.089 25.5045 205.85 26.6334 204.744 27.8867" stroke="#F7F7F8" stroke-miterlimit="10"/>
<path d="M232.46 24.8984C232.46 24.8984 238.293 43.7183 250.464 48.5242" stroke="#F7F7F8" stroke-miterlimit="10"/>
<path d="M244.597 29.957C249.285 33.8287 255.993 37.6499 263.956 37.2712" stroke="#F7F7F8" stroke-miterlimit="10"/>
<path d="M237.309 22.2725C238.405 23.7801 239.609 25.2062 240.911 26.5397" stroke="#F7F7F8" stroke-miterlimit="10"/>
<path d="M207.724 46.8326L244.353 53.0947C244.353 53.0947 244.353 58.6666 242.788 61.5114C241.222 64.3563 239.345 64.3899 235.272 64.3899C231.198 64.3899 225.533 61.8649 225.256 60.9475C224.608 58.7255 225.045 51.3945 225.045 51.3945L222.125 50.9232C222.125 50.9232 222.503 59.4661 220.938 60.4088C219.372 61.3515 209.037 59.4661 207.16 56.9664C205.283 54.4666 206.469 46.5128 207.724 46.8326Z" stroke="#494F50" stroke-linecap="round" stroke-linejoin="round"/>
<path d="M244.353 53.094L260.639 50.2744V52.4628L244.353 56.5365V53.094Z" fill="#77C487" stroke="#494F50" stroke-linecap="round" stroke-linejoin="round"/>
<path d="M272.659 55.0432C273.932 47.1263 270.949 40.0631 265.997 39.2673C261.044 38.4714 255.998 44.2442 254.726 52.1612C253.454 60.0781 256.437 67.1413 261.389 67.9371C266.341 68.733 271.387 62.9602 272.659 55.0432Z" fill="#77C487" stroke="#494F50" stroke-linecap="round" stroke-linejoin="round"/>
<path d="M275.276 55.3583C274.207 62.0243 270.496 66.965 267.003 66.401C263.51 65.8371 261.532 59.9875 262.601 53.3214C263.67 46.6554 267.373 41.7232 270.874 42.2871C274.376 42.851 276.345 48.7006 275.276 55.3583Z" fill="#77C487" stroke="#494F50" stroke-linecap="round" stroke-linejoin="round"/>
<path d="M270.336 27.4153C270.941 36.1775 269.986 44.9775 267.516 53.4062C267.516 53.4062 267.205 58.4562 271.901 56.2258C276.598 53.9953 275.975 34.9314 275.344 27.1038C274.712 19.2763 268.779 21.4646 270.336 27.4153Z" fill="#F7F7F8" stroke="#494F50" stroke-linecap="round" stroke-linejoin="round"/>
<path d="M252.812 12.6941C252.812 12.6941 260.008 10.8171 263.754 17.399C267.499 23.9809 266.885 29.9231 272.171 30.546C277.456 31.1688 277.81 25.2266 274.99 17.7105C272.171 10.1943 266.228 4.55509 258.081 3.93225C249.934 3.30941 245.927 9.88288 245.927 9.88288C245.927 9.88288 250.304 10.5057 252.812 12.6941Z" fill="#77C487" stroke="#494F50" stroke-linecap="round" stroke-linejoin="round"/>
<path d="M252.181 129.805L230.575 178.967C230.575 178.967 171.708 189.909 166.389 189.909C161.069 189.909 150.397 193.663 148.225 194.959C146.054 196.255 124.768 206.027 128.867 206.633C131.392 207.012 137.923 203.418 137.923 203.418C137.923 203.418 127.588 208.468 128.522 209.991C129.456 211.515 141.989 205.295 141.989 205.295C141.989 205.295 130.533 212.028 132.882 212.407C135.02 212.786 137.604 211.565 139.8 209.991C141.716 208.815 143.779 207.898 145.936 207.264C145.936 207.264 140.886 210.631 140.288 212.163C139.691 213.695 141.543 212.786 143.42 212.163C146.932 210.648 150.327 208.876 153.579 206.86C154.824 205.918 158.586 204.041 161.095 201.852L166.103 197.467C166.103 197.467 199.601 198.401 214.92 197.779C230.238 197.156 237.78 195.59 243.419 189.951C249.058 184.312 265.025 148.616 268.778 138.912C272.532 129.207 270.033 123.568 266.253 117.028" fill="#F7F7F8"/>
<mask id="mask4_20_907" style="mask-type:luminance" maskUnits="userSpaceOnUse" x="128" y="117" width="143" height="97">
<path d="M252.181 129.805L230.575 178.967C230.575 178.967 171.708 189.909 166.389 189.909C161.069 189.909 150.397 193.663 148.225 194.959C146.054 196.255 124.768 206.027 128.867 206.633C131.392 207.012 137.923 203.418 137.923 203.418C137.923 203.418 127.588 208.468 128.522 209.991C129.456 211.515 141.989 205.295 141.989 205.295C141.989 205.295 130.533 212.028 132.882 212.407C135.02 212.786 137.604 211.565 139.8 209.991C141.716 208.815 143.779 207.898 145.936 207.264C145.936 207.264 140.886 210.631 140.288 212.163C139.691 213.695 141.543 212.786 143.42 212.163C146.932 210.648 150.327 208.876 153.579 206.86C154.824 205.918 158.586 204.041 161.095 201.852L166.103 197.467C166.103 197.467 199.601 198.401 214.92 197.779C230.238 197.156 237.78 195.59 243.419 189.951C249.058 184.312 265.025 148.616 268.778 138.912C272.532 129.207 270.033 123.568 266.253 117.028" fill="white"/>
</mask>
<g mask="url(#mask4_20_907)">
<g style="mix-blend-mode:multiply" opacity="0.5">
<path d="M253.056 162.016C242.956 181.012 234.43 186.971 225.491 191.474C216.553 195.977 167.374 197.063 167.374 197.063L169.444 197.56C178.324 197.778 202.539 198.292 214.894 197.787C230.238 197.164 237.754 195.599 243.394 189.959C249.033 184.32 264.999 148.625 268.753 138.92C270.495 134.426 270.883 130.806 270.437 127.558L268.307 128.896C263.895 140.233 258.802 151.293 253.056 162.016Z" fill="#77C487"/>
</g>
</g>
<path d="M252.181 129.805L230.575 178.967C230.575 178.967 171.708 189.909 166.389 189.909C161.069 189.909 150.397 193.663 148.225 194.959C146.054 196.255 124.768 206.027 128.867 206.633C131.392 207.012 137.923 203.418 137.923 203.418C137.923 203.418 127.588 208.468 128.522 209.991C129.456 211.515 141.989 205.295 141.989 205.295C141.989 205.295 130.533 212.028 132.882 212.407C135.02 212.786 137.604 211.565 139.8 209.991C141.716 208.815 143.779 207.898 145.936 207.264C145.936 207.264 140.886 210.631 140.288 212.163C139.691 213.695 141.543 212.786 143.42 212.163C146.932 210.648 150.327 208.876 153.579 206.86C154.824 205.918 158.586 204.041 161.095 201.852L166.103 197.467C166.103 197.467 199.601 198.401 214.92 197.779C230.238 197.156 237.78 195.59 243.419 189.951C249.058 184.312 265.025 148.616 268.778 138.912C272.532 129.207 270.033 123.568 266.253 117.028" stroke="#494F50" stroke-miterlimit="10"/>
<path d="M251.819 128.567L245.245 145.611C250.076 143.035 259.141 139.576 266.371 144.769C267.39 142.379 268.223 140.359 268.778 138.92C272.541 129.215 270.032 123.576 266.253 117.036" fill="#494F50"/>
<path d="M251.819 128.567L245.245 145.611C250.076 143.035 259.141 139.576 266.371 144.769C267.39 142.379 268.223 140.359 268.778 138.92C272.541 129.215 270.032 123.576 266.253 117.036" stroke="#494F50" stroke-linecap="round" stroke-linejoin="round"/>
<path d="M205.3 151.183C198.945 153.043 173.846 160.391 171.515 160.938C170.071 161.289 168.606 161.551 167.13 161.72C167.13 161.72 158.36 157.958 156.011 156.241C153.663 154.524 150.843 155.61 149.438 156.241C148.032 156.872 146.913 161.249 149.598 161.249C152.283 161.249 152.729 161.089 155.7 163.597C158.671 166.105 158.679 167.36 160.868 168.294C163.056 169.228 166.667 168.605 168.544 168.294C170.227 168.016 199.332 166.08 206.495 165.701C207.429 161.762 206.495 155.61 205.3 151.183Z" fill="#F7F7F8"/>
<mask id="mask5_20_907" style="mask-type:luminance" maskUnits="userSpaceOnUse" x="147" y="151" width="60" height="18">
<path d="M205.3 151.183C198.945 153.043 173.846 160.391 171.515 160.938C170.071 161.289 168.606 161.551 167.13 161.72C167.13 161.72 158.36 157.958 156.011 156.241C153.663 154.524 150.843 155.61 149.438 156.241C148.032 156.872 146.913 161.249 149.598 161.249C152.283 161.249 152.729 161.089 155.7 163.597C158.671 166.105 158.679 167.36 160.868 168.294C163.056 169.228 166.667 168.605 168.544 168.294C170.227 168.016 199.332 166.08 206.495 165.701C207.429 161.762 206.495 155.61 205.3 151.183Z" fill="white"/>
</mask>
<g mask="url(#mask5_20_907)">
<g style="mix-blend-mode:multiply" opacity="0.5">
<path d="M206.301 155.711L168.544 168.336C170.227 168.058 199.332 166.122 206.495 165.744C207.135 163 206.899 159.254 206.301 155.711Z" fill="#77C487"/>
</g>
</g>
<path d="M205.3 151.183C198.945 153.043 173.846 160.391 171.515 160.938C170.071 161.289 168.606 161.551 167.13 161.72C167.13 161.72 158.36 157.958 156.011 156.241C153.663 154.524 150.843 155.61 149.438 156.241C148.032 156.872 146.913 161.249 149.598 161.249C152.283 161.249 152.729 161.089 155.7 163.597C158.671 166.105 158.679 167.36 160.868 168.294C163.056 169.228 166.667 168.605 168.544 168.294C170.227 168.016 199.332 166.08 206.495 165.701C207.429 161.762 206.495 155.61 205.3 151.183Z" stroke="#494F50" stroke-linecap="round" stroke-linejoin="round"/>
<path d="M142.544 161.409C142.544 161.409 139.253 163.286 138.336 165.474C137.418 167.663 139.27 167.04 139.901 166.577C140.533 166.114 143.192 163.909 143.192 163.909L142.544 161.409Z" fill="#F7F7F8" stroke="#494F50" stroke-linecap="round" stroke-linejoin="round"/>
<path d="M143.487 159.836C142.871 160.231 142.383 160.798 142.084 161.466C141.785 162.134 141.688 162.875 141.804 163.598C142.115 166.258 144.935 170.172 145.255 168.606C145.574 167.041 143.487 159.836 143.487 159.836Z" fill="#F7F7F8" stroke="#494F50" stroke-linecap="round" stroke-linejoin="round"/>
<path d="M147.401 157.487C147.401 157.487 144.421 158.27 143.487 159.836C142.553 161.401 144.11 168.143 145.213 168.606C145.446 168.711 145.701 168.761 145.958 168.753C146.214 168.744 146.465 168.678 146.691 168.557C146.918 168.437 147.114 168.267 147.265 168.059C147.415 167.852 147.517 167.613 147.561 167.36C147.872 166.258 147.401 157.487 147.401 157.487Z" fill="#F7F7F8" stroke="#494F50" stroke-linecap="round" stroke-linejoin="round"/>
<path d="M151.163 155.922C151.163 155.922 147.241 155.922 146.778 157.807C146.315 159.693 145.524 167.823 146.307 169.077C147.089 170.331 148.343 169.86 148.966 168.294C149.589 166.729 151.163 155.922 151.163 155.922Z" fill="#F7F7F8" stroke="#494F50" stroke-linecap="round" stroke-linejoin="round"/>
<path d="M154.723 141.336L148.293 170.618L149.303 174.355C149.318 174.412 149.348 174.464 149.39 174.506C149.432 174.548 149.484 174.578 149.541 174.594C149.598 174.609 149.659 174.609 149.716 174.594C149.773 174.578 149.825 174.548 149.867 174.506L152.678 171.712L157.375 142.119L154.723 141.336Z" fill="#494F50"/>
<path d="M161.027 164.97C161.027 164.97 157.425 166.384 154.605 167.638C151.786 168.892 148.966 169.515 149.278 171.24C149.589 172.966 150.843 172.334 152.88 171.712C155.675 170.737 158.563 170.054 161.499 169.675C165.412 169.203 168.543 165.601 168.543 165.601" fill="#F7F7F8"/>
<path d="M161.027 164.97C161.027 164.97 157.425 166.384 154.605 167.638C151.786 168.892 148.966 169.515 149.278 171.24C149.589 172.966 150.843 172.334 152.88 171.712C155.675 170.737 158.563 170.054 161.499 169.675C165.412 169.203 168.543 165.601 168.543 165.601" stroke="#494F50" stroke-linecap="round" stroke-linejoin="round"/>
<path d="M148.377 171.072L149.033 173.833C149.066 173.966 149.132 174.088 149.226 174.188C149.321 174.287 149.439 174.36 149.57 174.399C149.701 174.438 149.841 174.442 149.974 174.411C150.107 174.38 150.23 174.314 150.33 174.22L151.87 172.756" stroke="#F7F7F8" stroke-width="0.5" stroke-linecap="round" stroke-linejoin="round"/>
<path d="M148.301 170.617L151.626 155.787" stroke="#F7F7F8" stroke-width="0.5" stroke-linecap="round" stroke-linejoin="round"/>
<path d="M33.27 112.466L75.7325 151.957" stroke="#494F50" stroke-width="0.5" stroke-linecap="round" stroke-linejoin="round"/>
</svg>
