<svg xmlns="http://www.w3.org/2000/svg" width="117" height="117" viewBox="0 0 117 117">
    <g fill="#D1DAE0" fill-rule="evenodd">
        <path d="M112.194 29.377c1.217 0 2.214.939 2.311 2.133l.008.19v31.765c0 4.035-1.355 7.953-3.847 11.122-2.467 3.136-6.188 5.012-10.156 5.138l-.426.006H26.169c-1.28 0-2.319-1.04-2.319-2.324 0-1.22.937-2.22 2.129-2.316l.19-.008h73.915c2.706 0 5.263-1.243 6.939-3.374 1.75-2.225 2.743-4.949 2.843-7.772l.009-.472V31.701c0-1.284 1.038-2.324 2.319-2.324zM97.9 21.076c4.29 0 7.782 3.642 7.782 8.12v34.228c0 4.478-3.492 8.12-7.782 8.12H23.35c-4.29 0-7.782-3.642-7.782-8.12V29.197c0-4.479 3.492-8.121 7.782-8.121H97.9zm0 4.818H23.35c-1.632 0-2.962 1.482-2.962 3.303v34.227c0 1.821 1.33 3.303 2.962 3.303H97.9c1.634 0 2.962-1.482 2.962-3.303V29.197c0-1.821-1.328-3.303-2.962-3.303zm-14.994 5.807c3.278 0 3.71.93 4.249 2.114.424.919 1.209 2.63 3.446 2.63h3.35c1.354 0 2.454 1.076 2.454 2.403v14.927c0 1.324-1.1 2.404-2.454 2.404h-3.35c-2.237 0-3.022 1.71-3.446 2.629-.54 1.18-.97 2.112-4.249 2.112H39.668c-3.278 0-3.706-.931-4.246-2.112-.424-.919-1.209-2.63-3.449-2.63h-3.35c-1.35 0-2.454-1.079-2.454-2.403V38.848c0-1.327 1.103-2.404 2.454-2.404h3.35c2.24 0 3.025-1.71 3.45-2.629.539-1.183.967-2.114 4.245-2.114zm-21.62 4.486c-5.392.002-9.765 4.536-9.765 10.123 0 5.59 4.373 10.121 9.766 10.124 5.394-.003 9.766-4.533 9.766-10.124 0-5.587-4.372-10.12-9.766-10.123z" transform="translate(1 8)"/>
        <path d="M96.626 29.377c1.217 0 2.215.939 2.312 2.133l.007.19v31.765c0 4.035-1.355 7.953-3.847 11.122-2.466 3.136-6.187 5.012-10.156 5.138l-.426.006H10.602c-1.281 0-2.32-1.04-2.32-2.324 0-1.22.938-2.22 2.13-2.316l.19-.008h73.914c2.707 0 5.264-1.243 6.94-3.374 1.75-2.225 2.743-4.949 2.843-7.772l.008-.472V31.701c0-1.284 1.038-2.324 2.32-2.324zm-14.292-8.301c4.29 0 7.781 3.642 7.781 8.12v34.228c0 4.478-3.491 8.12-7.781 8.12H7.781c-4.29 0-7.781-3.642-7.781-8.12V29.197c0-4.479 3.492-8.121 7.781-8.121h74.553zm0 4.818H7.781c-1.631 0-2.961 1.482-2.961 3.303v34.227c0 1.821 1.33 3.303 2.961 3.303h74.553c1.634 0 2.962-1.482 2.962-3.303V29.197c0-1.821-1.328-3.303-2.962-3.303zM67.34 31.701c3.278 0 3.709.93 4.248 2.114.424.919 1.21 2.63 3.447 2.63h3.35c1.353 0 2.454 1.076 2.454 2.403v14.927c0 1.324-1.1 2.404-2.454 2.404h-3.35c-2.238 0-3.023 1.71-3.447 2.629-.54 1.18-.97 2.112-4.248 2.112H24.1c-3.277 0-3.706-.931-4.245-2.112-.424-.919-1.21-2.63-3.45-2.63h-3.35c-1.35 0-2.453-1.079-2.453-2.403V38.848c0-1.327 1.103-2.404 2.454-2.404h3.35c2.24 0 3.025-1.71 3.449-2.629.54-1.183.968-2.114 4.246-2.114zm-21.62 4.486c-5.392.002-9.766 4.536-9.766 10.123 0 5.59 4.374 10.121 9.766 10.124 5.395-.003 9.766-4.533 9.766-10.124 0-5.587-4.371-10.12-9.766-10.123z" transform="translate(1 8)"/>
        <path fill-rule="nonzero" d="M109.499.772c1.03-1.03 2.7-1.03 3.73 0 .976.976 1.027 2.526.154 3.563l-.154.167-95.315 95.315c-1.03 1.03-2.7 1.03-3.73 0-.975-.976-1.027-2.526-.154-3.562l.154-.168L109.5.772z" transform="translate(1 8)"/>
    </g>
</svg>
