<svg xmlns="http://www.w3.org/2000/svg" width="117" height="117" viewBox="0 0 117 117">
    <g fill="#D1DAE0" fill-rule="evenodd">
        <path d="M84.967 65.422c-6.435-4.443-16.305-2.083-22.456-9.996 0 0-2.289-2.499 2.86-8.607 5.15-6.109 5.578-15.827 4.291-23.324C68.376 15.998 61.081 11 53.5 11c-7.58 0-14.876 4.998-16.162 12.495-1.288 7.497-.859 17.215 4.29 23.324 5.15 6.108 2.86 8.607 2.86 8.607-6.15 7.913-16.018 5.553-22.455 9.996C15.597 69.864 17.17 80 17.17 80h72.66s1.573-10.136-4.863-14.578z" transform="translate(8 8)"/>
        <path fill-rule="nonzero" d="M96.087.772c1.03-1.03 2.7-1.03 3.73 0 .976.976 1.027 2.526.154 3.563l-.154.167L4.502 99.817c-1.03 1.03-2.7 1.03-3.73 0-.975-.976-1.027-2.526-.154-3.562l.154-.168L96.087.772z" transform="translate(8 8)"/>
        <path d="M81.967 63.422c-6.435-4.443-16.305-2.083-22.456-9.996 0 0-2.289-2.499 2.86-8.607 5.15-6.109 5.578-15.827 4.291-23.324C65.376 13.998 58.081 9 50.5 9c-7.58 0-14.876 4.998-16.162 12.495-1.288 7.497-.859 17.215 4.29 23.324 5.15 6.108 2.86 8.607 2.86 8.607-6.15 7.913-16.018 5.553-22.455 9.996C12.597 67.864 14.17 78 14.17 78h72.66s1.573-10.136-4.863-14.578z" transform="translate(8 8)"/>
    </g>
</svg>
