<svg xmlns="http://www.w3.org/2000/svg" width="117" height="117" viewBox="0 0 117 117">
    <g fill="none" fill-rule="evenodd">
        <path stroke="#D1DAE0" stroke-width="8" d="M103.632 54.38c-6.918-2.268-10.122-12.57-5.77-18.467 2.901-3.925 1.721-6.266-.81-9.386-2.7-3.353-5.295-4.097-9.28-2.065-5.974 3.017-16.47-2.236-17.582-9.25-.845-5.625-4.152-5.657-8.3-6.133-4.424-.544-6.01 1.76-7.194 5.421-1.18 3.63-9.412 7.894-14.744 7.522-.98-.44-2.87-.78-4.017-1.897-4.089-3.896-6.922-1.46-10.194 1.289-3.371 2.776-3.14 5.353-1.315 8.942 3 5.765-2.598 16.639-9.484 17.519-4.153.54-5.165 2.504-5.603 5.149L9 57.701c.072 2.676.777 4.777 4.758 5.897 6.719 1.896 10.632 13.483 6.854 18.768-2.363 3.256-2.937 5.797-.036 9.046 2.834 3.152 5.297 6.033 9.927 2.748 1.28-.916 3.2-.984 4.248-1.292 5.3.444 12.828 5.865 13.466 9.626.641 3.797 1.857 6.301 6.348 6.437 4.152.136 7.424.576 9.11-4.845 2.092-6.777 13.262-10.434 18.729-6.573 3.646 2.608 6.312 2.268 9.484-.644 2.937-2.709 4.456-4.877 2.16-9.178-3.411-6.513 1.248-16.2 8.405-17.42 3.881-.676 5.499-2.268 6.208-5.185L109 60.41c-.271-2.98-1.654-4.808-5.368-6.029h0z"/>
        <g stroke="#537D98" stroke-linecap="round" stroke-width="8">
            <path stroke-dasharray="2 3" d="M19.185 5.127C8.768 8.104 2.745 18.933 5.732 29.317c2.986 10.38 13.853 16.383 24.27 13.406" transform="rotate(78 18.932 62.582)"/>
            <path d="M9.794 0.886L20.498 4.636 16.764 15.113" transform="rotate(78 18.932 62.582) rotate(-9 15.146 8)"/>
            <path stroke-dasharray="1 12" d="M39.279 35.37c7.393-7.901 6.815-22.281-6.135-29.448" transform="rotate(78 18.932 62.582)"/>
        </g>
    </g>
</svg>
