<svg xmlns="http://www.w3.org/2000/svg" xmlns:xlink="http://www.w3.org/1999/xlink" width="142" height="31" viewBox="0 0 142 31">
    <defs>
        <path id="prefix__a" d="M0.103 0.09L18.226 0.09 18.226 26.752 0.103 26.752z"/>
        <path id="prefix__c" d="M0.043 0.005L7.602 0.005 7.602 8.357 0.043 8.357z"/>
        <path id="prefix__e" d="M0 28.138L139.9 28.138 139.9 0 0 0z"/>
    </defs>
    <g fill="none" fill-rule="evenodd" transform="translate(1 1)">
        <g transform="translate(33.455 1.493)">
            <mask id="prefix__b" fill="#fff">
                <use xlink:href="#prefix__a"/>
            </mask>
            <path fill="#608AA4" d="M9.22 26.747c-2.064.06-3.995-.45-5.779-1.456-1.287-.727-2.326-1.756-3.086-3.04-.537-.907-.184-1.84.752-2.055.515-.118 1.043.147 1.399.732.555.912 1.294 1.65 2.17 2.235 1.047.701 2.222 1.036 3.477 1.174 1.52.168 2.997.028 4.435-.459 1.905-.644 2.979-2.228 3.026-4.247.048-2.056-.977-3.346-2.73-4.23-1.733-.872-3.604-1.34-5.41-2-1.563-.57-3.13-1.161-4.361-2.343-.617-.592-1.114-1.28-1.405-2.114-.392-1.12-.514-2.256-.322-3.421.191-1.157.657-2.185 1.465-3.05C4.314.909 6.201.375 8.245.15c1.492-.164 2.938.024 4.365.399 1.503.395 2.827 1.165 3.91 2.277.493.506 1.083.999 1.189 1.79.06.451-.276 1.075-.698 1.262-.499.22-1.12.096-1.434-.298-1.018-1.28-2.249-2.256-3.825-2.756-1.11-.352-2.248-.362-3.389-.278-.813.06-1.608.253-2.338.626-1.26.644-1.943 1.678-2.071 3.11-.178 1.977 1.028 3.11 2.445 3.837 1.535.786 3.18 1.287 4.803 1.848 1.744.603 3.434 1.335 4.885 2.52.576.47.98 1.077 1.348 1.714.732 1.269.896 2.641.734 4.07-.195 1.72-.822 3.24-2.137 4.401-1.127.995-2.488 1.512-3.941 1.8-.948.188-1.908.267-2.871.276" mask="url(#prefix__b)"/>
        </g>
        <path fill="#608AA4" d="M75.93 17.759l3.34-2.74c1.306-1.069 2.613-2.138 3.921-3.206.596-.486 1.182-.985 1.795-1.448.542-.41 1.192-.274 1.669.308.338.412.293 1.143-.13 1.544-.768.73-1.632 1.344-2.452 2.01-1.204.98-2.406 1.961-3.625 2.92-.242.192-.182.329-.043.51 2.14 2.762 4.279 5.524 6.42 8.285.299.384.437.798.27 1.274-.17.487-.51.79-1.027.831-.509.04-.902-.216-1.203-.601-2.147-2.757-4.291-5.515-6.422-8.284-.181-.235-.31-.267-.523-.096-.589.474-1.177.948-1.767 1.42-.209.167-.225.393-.224.636.003 1.839.006 3.678-.002 5.518-.002.578-.223 1.01-.784 1.291-.68.342-1.623-.228-1.708-1.026-.011-.11-.006-.222-.006-.332l.001-24.354c0-.477.027-.951.45-1.276.373-.286.789-.39 1.24-.212.516.204.761.61.802 1.152.012.165.007.331.007.497l.001 14.77v.609zM108.888 14.264c0-4.108-.002-8.216.001-12.324 0-1.002.734-1.515 1.668-1.181.418.148.744.648.746 1.188.005 1.866.002 3.733 0 5.6-.003 3.263-.008 6.527-.009 9.79 0 .116-.058.277.093.33.11.037.192-.085.276-.154 1.734-1.428 3.47-2.853 5.202-4.283 1.084-.894 2.163-1.793 3.243-2.692.811-.676 1.875-.384 2.113.593.112.457-.032.86-.385 1.154-.912.757-1.84 1.496-2.762 2.24-1.063.856-2.12 1.72-3.197 2.558-.268.21-.261.358-.073.6 1.73 2.238 3.454 4.48 5.18 6.72.405.525.814 1.046 1.22 1.57.464.6.429 1.325-.083 1.747-.548.451-1.289.36-1.787-.26-.716-.894-1.402-1.811-2.105-2.715-1.457-1.873-2.921-3.74-4.37-5.62-.206-.27-.36-.265-.6-.063-.518.434-1.045.857-1.58 1.268-.286.22-.408.47-.404.844.019 1.784.009 3.568.008 5.352 0 .379-.034.751-.305 1.049-.349.383-.78.523-1.272.353-.47-.161-.74-.514-.806-1.01-.021-.163-.012-.331-.012-.497V14.264M63.577 19.535c-.73 0-1.46-.005-2.189.001-.676.006-1.347.07-2.001.251-1.408.391-2.282 1.468-2.305 2.833-.028 1.621.684 2.632 2.188 3.117.936.302 1.9.333 2.86.236 2.167-.22 4.019-1.634 4.38-3.908.109-.69.03-1.381.072-2.07.023-.375-.135-.475-.485-.467-.84.02-1.68.006-2.52.007m2.9 6.128c-.176.222-.34.456-.533.664-1.027 1.107-2.345 1.633-3.802 1.805-1.508.178-2.993.033-4.416-.556-1.908-.79-3.018-2.471-3.079-4.554-.023-.815.057-1.59.36-2.34.426-1.056 1.19-1.81 2.163-2.352 1.297-.721 2.71-.923 4.175-.9 1.5.023 3.001.005 4.502.005.724 0 .705-.001.722-.715.017-.685-.04-1.348-.296-1.99-.421-1.058-1.148-1.774-2.223-2.167-1.266-.462-2.54-.425-3.806-.09-.701.186-1.344.545-1.882 1.068-.353.344-.645.755-1.095.998-.494.268-.959.196-1.37-.242-.315-.333-.354-.947-.088-1.345 1.126-1.68 2.72-2.6 4.689-2.906 1.385-.215 2.773-.188 4.115.206 1.447.424 2.65 1.217 3.435 2.584.675 1.175.896 2.453.923 3.767.04 1.946.04 3.895 0 5.84-.027 1.414.005 2.826 0 4.239-.002.696-.553 1.297-1.189 1.313-.663.016-1.172-.519-1.194-1.267-.01-.342-.001-.685-.001-1.028l-.11-.037M101.856 16.857c0-1.742-.002-3.484.002-5.226 0-.658.362-1.246.84-1.398.88-.28 1.647.325 1.656 1.337.012 1.285-.005 2.57-.008 3.856-.003 1.576.037 3.153-.02 4.727-.039 1.115.012 2.238-.211 3.346-.455 2.257-1.715 3.789-3.972 4.34-2.306.564-4.611.572-6.84-.383-1.067-.457-1.808-1.27-2.332-2.303-.492-.969-.68-2.005-.716-3.073-.12-3.551-.024-7.104-.048-10.656-.004-.638.537-1.211 1.189-1.278.52-.054 1.078.388 1.235.958.06.218.077.435.073.656-.028 1.603-.035 3.208-.023 4.81.013 1.835-.061 3.673.033 5.506.096 1.859.948 3.301 3.067 3.69.99.183 1.973.191 2.954.019 1.936-.34 3.085-1.694 3.122-3.703.031-1.741.006-3.484.006-5.225h-.007zM139.898 16.85c0 1.563.004 3.126-.001 4.689-.003.874-.102 1.738-.337 2.583-.486 1.752-1.564 2.967-3.283 3.551-2.08.707-4.2.704-6.307.15-2.326-.61-3.558-2.223-3.958-4.547-.122-.71-.163-1.43-.168-2.147-.02-3.195-.02-6.39-.027-9.583-.001-.642.357-1.178.872-1.311.612-.16 1.146.07 1.434.61.144.27.123.563.123.852.002 3.208.002 6.417-.002 9.625 0 .43.029.856.088 1.281.246 1.75 1.238 2.829 2.963 3.17 1.064.212 2.139.212 3.202 0 1.865-.372 2.9-1.72 2.996-3.781.05-1.107.046-2.212.048-3.317.004-2.393 0-4.785.003-7.178 0-.634.24-1.005.756-1.206.678-.264 1.372.087 1.543.798.048.198.053.41.053.617.004 1.715.002 3.43.002 5.145M135.275 3.014c-.205 0-.41-.01-.613.003-.148.01-.27.09-.26.258.008.146.126.21.258.212.395.006.79.006 1.186 0 .133-.001.25-.064.26-.21.01-.168-.11-.249-.26-.26-.19-.013-.38-.002-.571-.003m.061-.6c1.115 0 2.229-.007 3.343.003.608.006 1 .391 1.046.997.12 1.57-.04 3.14.007 4.71.01.322-.195.34-.435.348-.281.008-.433-.078-.43-.4.01-1.146.005-2.294.003-3.44-.001-.622-.158-.782-.787-.783-1.885-.003-3.77-.003-5.656 0-.642 0-.79.159-.79.82-.002 1.105-.005 2.211.001 3.317.002.278-.023.49-.384.489-.316-.001-.498-.041-.516-.443-.024-.522.014-1.042.01-1.562-.007-.905-.051-1.81-.019-2.717.031-.852.449-1.35 1.305-1.351 1.1-.003 2.201-.001 3.302-.001v.013"/>
        <path fill="#608AA4" d="M135.26 8.47c-.73 0-1.46-.01-2.19.005-.347.008-.494-.102-.486-.474.02-.912.015-1.825.002-2.738-.004-.317.107-.448.43-.446 1.486.008 2.973.008 4.46 0 .31-.002.448.103.443.433-.014.926-.017 1.853.001 2.779.008.361-.154.45-.472.445-.73-.012-1.46-.004-2.189-.004M126.747 7.358c-.334-.508-.418-1.062-.64-1.557-.107-.24-.18-.493-.281-.735-.079-.19-.03-.304.147-.405.817-.467.989-.861.77-1.81-.044-.193.004-.289.17-.353.489-.186.978-.37 1.466-.558.203-.078.316.014.378.198.162.487.475.792.996.869.186.027.279.168.29.353.01.151.017.304.009.455-.016.3.073.618-.08.897-.19.348-.55.148-.826.22-1.023.268-1.764.865-2.17 1.857-.072.174-.14.348-.23.57"/>
        <g transform="translate(123.912 .102)">
            <mask id="prefix__d" fill="#fff">
                <use xlink:href="#prefix__c"/>
            </mask>
            <path fill="#608AA4" d="M2.379 8.316c-.275.078-.378-.091-.464-.324C1.308 6.362.692 4.735.08 3.107c-.123-.33.068-.74.41-.87C2.408 1.514 4.325.792 6.242.073c.484-.181.815 0 .973.501.08.25.18.493.268.74.044.127.235.276.018.383-.173.086-.396.084-.529-.093-.104-.14-.173-.314-.228-.482-.114-.353-.334-.449-.67-.32-1.296.497-2.591.995-3.888 1.49-.347.133-.694.263-1.046.383-.353.12-.42.332-.289.674.596 1.56 1.177 3.124 1.766 4.686.089.234.112.402-.237.281" mask="url(#prefix__d)"/>
        </g>
        <path fill="#608AA4" d="M128.491 8.431c-.41.02-.722.04-1.036.05-.2.008-.294-.087-.304-.297-.063-1.359.777-2.547 2.232-2.855.218-.046.55-.134.655.237.11.386-.01.624-.395.78-.306.123-.617.232-.924.353-.113.044-.258.085-.174.258.068.14.192.139.319.089.05-.02.096-.053.146-.075.13-.058.27-.108.369.04.1.153.035.293-.085.406-.099.095-.21.176-.308.273-.08.078-.156.176-.055.287.083.091.18.04.26-.016.123-.086.239-.184.36-.274.09-.067.138-.23.3-.145.113.058.124.17.14.281.022.15-.051.244-.177.29-.458.169-.894.446-1.323.318M126.499 3.282c.005.434-.466 1.093-.787 1.102-.123.003-.533-.81-.527-1.043.005-.163.702-.547.986-.544.18.002.324.215.328.485M129.859 2.644c-.314-.008-.89-.527-.867-.78.013-.146.742-.52 1.014-.508.339.014.342.312.4.536.038.145-.437.754-.547.752M26.847 23.013c0 2.89-2.333 5.232-5.212 5.232H5.207C2.332 28.245 0 25.902 0 23.013V6.515c0-2.89 2.332-5.234 5.207-5.234h16.428c2.879 0 5.212 2.344 5.212 5.234v16.498z"/>
        <mask id="prefix__f" fill="#fff">
            <use xlink:href="#prefix__e"/>
        </mask>
        <path fill="#FFF" d="M13.903 10.575L17.839 10.575 17.839 7.871 13.903 7.871z" mask="url(#prefix__f)"/>
        <path fill="#FFF" d="M14.52 6.53c.115 0 .204.095.204.208 0 .115-.09.21-.204.21-.115 0-.209-.095-.209-.21 0-.113.094-.208.21-.208zm.89.01h.92c.107 0 .195.082.195.187s-.088.189-.195.189h-.92c-.102 0-.19-.084-.19-.19 0-.104.088-.187.19-.187zm-2.183 4.035v-3.08c0-.02.004-.034.007-.047.04-.145.169-.257.328-.257h4.62c.157 0 .288.112.329.257.002.013.006.026.006.047v3.08h.662V6.879c0-.42-.331-.757-.748-.757h-5.12c-.417 0-.75.337-.75.757v3.696h.666zM9.348 6.446c-.016-.042-.036-.079-.06-.115l-.723.274c-.098.037-.145.141-.103.235l.284.774c.03-.009.057-.013.083-.028.459-.171.69-.683.52-1.14M11.77 9.458c.048.131.136.201.23.21v-.47l-.287.108.058.152z" mask="url(#prefix__f)"/>
        <path fill="#FFF" d="M11.175 8.36c-.902.34-1.409 1.274-1.257 2.193h1.328l.735-.279c.005-.002.01-.007.019-.007v-.36c-.09-.02-.168-.07-.222-.139l-.002.005c0 .115-.074.212-.197.297-.155.11-.303.208-.345.256l-.099-.26c.032-.033.13-.116.295-.216.163-.112.195-.198.147-.344l-.048-.126-.574.216-.092-.253L12 8.91v-.672c-.272-.018-.553.017-.825.122" mask="url(#prefix__f)"/>
        <path fill="#FFF" d="M12.779 4.714c-.096-.254-.375-.38-.622-.283L7.85 6.064c-.252.095-.377.376-.285.63l1.453 3.86h.51L8.08 6.7c-.036-.103.01-.221.117-.261l3.945-1.497c.1-.038.222.012.259.118l.226.609c.065-.015.128-.023.186-.023h.316l-.351-.933z" mask="url(#prefix__f)"/>
        <path fill="#FFF" d="M11.064 5.922c-.031-.081-.05-.161-.058-.245l-1.504.572c.043.069.084.14.12.224.197.52-.065 1.107-.594 1.307-.06.023-.13.04-.199.052l.778 2.05c.117-.797.651-1.512 1.457-1.817.31-.117.628-.164.936-.145V6.575c-.403-.004-.78-.246-.936-.653" mask="url(#prefix__f)"/>
        <path fill="#FFF" d="M11.975 5.31l-.756.287c.004.043.015.084.031.125.13.334.434.547.77.568.045-.204.166-.381.33-.5l-.14-.374c-.033-.095-.139-.145-.235-.107M9.825 11.82c-.504 0-.894.392-.894.898v7.312c0 2.662.894 5.097 5.194 5.097 4.317 0 5.185-2.435 5.185-5.097v-7.312c0-.506-.392-.898-.868-.898-.5 0-.915.392-.915.898v7.312c0 1.819-.588 3.387-3.402 3.387-2.821 0-3.408-1.568-3.408-3.387v-7.312c0-.506-.417-.898-.892-.898" mask="url(#prefix__f)"/>
    </g>
</svg>
