<svg width="186"
     height="105"
     viewBox="0 0 186 105"
     fill="none"
     xmlns="http://www.w3.org/2000/svg">
  <g opacity="0.12">
    <path d="M174.662 101.597C175.188 100.879 176.085 99.562 177.152 97.7925C183.357 87.5054 195.302 61.9546 173.253 50.329C162.349 44.579 161.052 37.6989 153.633 22.0025C139.8 -7.26306 85.5136 -5.09782 68.3463 15.3808C53.1531 33.5036 44.4238 24.5281 21.6258 36.6557C-4.84052 50.7344 -1.79573 73.2373 3.79197 87.5669C6.91541 95.5783 10.8344 101.035 10.8344 101.035C10.8344 101.035 22.2219 101.281 38.9863 101.597C85.3426 102.472 172.809 103.878 174.295 102.077C174.38 101.974 174.505 101.812 174.662 101.597Z"
          fill="white" />
  </g>
  <mask id="mask0_49_4275"
        style="mask-type:luminance"
        maskUnits="userSpaceOnUse"
        x="52"
        y="55"
        width="33"
        height="46">
    <path d="M52.0439 55.8463H84.7341V100.523H52.0439V55.8463Z"
          fill="white" />
  </mask>
  <g mask="url(#mask0_49_4275)">
    <path d="M78.0626 68.2939C80.4174 66.29 81.8185 69.3175 81.8185 69.3175C86.2507 71.6554 80.9714 97.4625 80.9714 97.4625L74.3232 97.9079L75.2924 82.9895C75.2924 82.9895 75.7081 70.2978 78.0626 68.2939Z"
          fill="#34002F" />
    <path d="M79.3844 69.731C79.2982 68.0029 80.2384 65.4115 81.085 63.4618C81.7536 61.9225 82.3626 60.783 82.3626 60.783C82.3626 60.783 78.3252 55.5064 76.149 55.8635C75.6529 55.9449 75.2535 56.3194 75.0208 57.1165C73.7684 61.4076 68.6943 62.5304 68.6943 62.5304C68.6943 62.5304 76.8032 79.0969 78.9884 79.2512C81.1741 79.406 79.485 71.7353 79.3844 69.731Z"
          fill="#FDBD96" />
    <path d="M75.0847 100.524C75.0847 100.524 76.9318 99.1182 78.1416 95.5352C78.9463 93.1532 79.4688 89.8086 78.98 85.2747C78.1796 77.85 77.5218 70.9486 75.6362 66.719C75.5496 66.5244 75.46 66.3354 75.3681 66.1527C74.402 64.2309 73.1348 62.956 71.4116 62.5689C71.4116 62.5689 69.43 62.3374 66.8125 63.1331C66.3758 63.266 65.9214 63.4273 65.4553 63.6231C62.3557 64.9253 58.75 67.7517 56.4794 73.8234C51.822 86.2766 52.0447 99.6334 52.0447 99.6334L62.0655 100.021L75.0847 100.524Z"
          fill="#25766D" />
    <path d="M84.2647 71.9855C83.1443 68.2391 79.8878 67.6087 79.8878 67.6087C79.8878 67.6087 80.9383 68.799 81.1851 74.3675C81.6562 85.015 78.291 100.524 78.291 100.524L83.4111 99.6333C83.4111 99.6333 83.4111 99.6331 82.6317 96.0714C81.8523 92.5097 86.0909 78.0913 84.2647 71.9855Z"
          fill="#25766D" />
    <path d="M72.4324 70.7945C71.9876 68.2145 74.6603 67.1359 75.637 66.719L75.3684 66.1523L66.8126 63.1325L65.6036 62.7058L65.4554 63.6227L63.818 73.7706L54.6094 94.1491C54.6094 94.1491 59.575 98.1132 62.066 100.02L75.0851 100.523C75.0851 100.523 76.9323 99.1176 78.142 95.5346C74.8586 94.985 74.2648 94.6358 72.7472 92.0833C71.2065 89.4921 66.8651 91.0326 66.3747 87.9514C65.8848 84.8703 73.3077 75.8718 72.4324 70.7945Z"
          fill="#77C487" />
  </g>
  <path d="M84.4833 96.0412C82.3271 96.2712 72.5988 96.0412 72.5988 96.0412C72.5988 96.0412 67.3047 100.645 69.606 100.645C71.9077 100.645 74.2096 100.759 77.0867 101.22C79.9638 101.68 83.3016 99.954 83.992 100.529C84.6827 101.105 87.2145 102.026 87.5598 101.335C87.9052 100.645 85.9487 99.3788 85.9487 99.3788C85.9487 99.3788 87.5598 100.645 89.5166 101.68C91.4733 102.716 91.5882 101.335 91.5882 101.335C91.5882 101.335 92.8538 102.256 93.6596 101.68C94.4655 101.105 93.3149 100.185 91.9336 98.8034C90.5523 97.4225 86.6394 95.8111 84.4833 96.0412Z"
        fill="#F9AE8F" />
  <path d="M173.453 103.852V102.288C173.453 101.871 173.014 101.532 172.472 101.532H10.985C10.4425 101.532 10.0029 101.871 10.0029 102.288V103.852C10.0029 104.269 10.4425 104.608 10.985 104.608H172.471C173.014 104.608 173.453 104.269 173.453 103.852Z"
        fill="#564D68" />
  <mask id="mask1_49_4275"
        style="mask-type:luminance"
        maskUnits="userSpaceOnUse"
        x="85"
        y="43"
        width="10"
        height="19">
    <path d="M85.6396 43.5937H94.7416V61.413H85.6396V43.5937Z"
          fill="white" />
  </mask>
  <g mask="url(#mask1_49_4275)">
    <path d="M94.1023 51.1155C94.7864 45.6448 89.991 43.5941 89.991 43.5941L85.6401 59.828C85.6401 59.828 93.4187 56.5863 94.1023 51.1155Z"
          fill="#230021" />
    <path d="M88.1887 53.0786C88.8548 50.4834 89.5282 47.8778 90.2099 45.2674C90.1857 45.2601 90.1632 45.2513 90.1657 45.2534L90.1697 45.2555L90.1864 45.2628L90.2211 45.2784L90.2916 45.312C90.3393 45.3345 90.3862 45.3597 90.4339 45.384C90.5287 45.4343 90.6233 45.4868 90.7164 45.5418C90.9031 45.6514 91.0848 45.7714 91.2618 45.8974C91.6164 46.1493 91.9494 46.432 92.2548 46.741C92.867 47.3579 93.3655 48.0851 93.6941 48.887C93.8583 49.2875 93.9856 49.704 94.0664 50.1317C94.1452 50.5598 94.1841 50.9951 94.1898 51.4334C94.1829 52.3137 94.0621 53.1867 93.7249 53.9988C93.5714 54.4095 93.3597 54.7983 93.1372 55.1791C93.017 55.3646 92.9038 55.5546 92.7699 55.7323C92.7044 55.8217 92.6432 55.9146 92.5738 56.0015L92.3669 56.2628C92.3 56.3519 92.2242 56.4336 92.1519 56.5186C92.0777 56.6022 92.0077 56.689 91.9306 56.7697C91.7771 56.9322 91.6269 57.097 91.4648 57.2518C91.1489 57.5687 90.812 57.8654 90.4672 58.1531C90.1224 58.4408 89.7621 58.7107 89.3969 58.9738C89.03 59.2344 88.6533 59.4826 88.2704 59.7207C87.5047 60.1943 86.7057 60.6302 85.8898 60.9971L86.1061 61.1862L88.1887 53.0786ZM90.4668 44.5811C90.4689 44.5811 90.4307 44.5673 90.3987 44.5586L90.3014 44.9107C89.5648 47.5927 88.8183 50.2786 88.0645 52.9769L85.7962 61.1033L85.7075 61.4206L86.0125 61.2925C86.4409 61.1123 86.8505 60.9137 87.2597 60.7048C87.6672 60.4947 88.0685 60.2735 88.4625 60.0387C88.8565 59.8039 89.2442 59.5592 89.6238 59.3001C90.0013 59.0388 90.3749 58.7702 90.7339 58.4817C91.0925 58.1937 91.4446 57.8954 91.7775 57.5745C91.9475 57.4181 92.1067 57.2503 92.2688 57.0849C92.3505 57.0028 92.4251 56.9138 92.5036 56.8284C92.5803 56.7418 92.6603 56.6576 92.7326 56.5665L92.9541 56.2973C93.0284 56.2078 93.0945 56.1117 93.1651 56.019C93.3087 55.8352 93.4326 55.6369 93.5631 55.4433C93.807 55.0445 94.0397 54.6347 94.2137 54.1961L94.2825 54.0332C94.3056 53.979 94.3219 53.922 94.3421 53.8667L94.4569 53.5313C94.4906 53.418 94.5181 53.3027 94.5485 53.1882L94.5933 53.0163C94.6073 52.9588 94.615 52.8998 94.6261 52.8415L94.6877 52.4906C94.7033 52.3741 94.7131 52.2573 94.7261 52.1404L94.7446 51.9652C94.7496 51.907 94.7508 51.8479 94.754 51.7893L94.7698 51.4362C94.7731 50.9647 94.7396 50.4911 94.6625 50.0229C94.5829 49.5546 94.4529 49.0947 94.2806 48.6507C93.9358 47.7613 93.4014 46.9494 92.7457 46.2633C92.4182 45.9189 92.0611 45.6043 91.6794 45.3224C91.4887 45.1809 91.2929 45.0467 91.0898 44.9219C90.9881 44.8596 90.8849 44.7992 90.7799 44.7409C90.7266 44.7127 90.6741 44.6834 90.6195 44.6559L90.537 44.6144L90.4943 44.594L90.4722 44.5836L90.4668 44.5811Z"
          fill="#34002F" />
  </g>
  <mask id="mask2_49_4275"
        style="mask-type:luminance"
        maskUnits="userSpaceOnUse"
        x="76"
        y="42"
        width="17"
        height="22">
    <path d="M76.541 42.5601H92.5656V63.4561H76.541V42.5601Z"
          fill="white" />
  </mask>
  <g mask="url(#mask2_49_4275)">
    <path d="M81.0869 63.4664C81.7555 61.9271 82.3649 60.7875 82.3649 60.7875C82.3649 60.7875 78.7172 51.8631 76.541 52.2202C76.7541 55.2623 79.4174 61.9947 81.0869 63.4664Z"
          fill="#FB9B77" />
    <path d="M86.6608 62.502C89.231 61.6003 92.688 56.6628 92.5584 51.4837C92.5465 50.9905 92.503 50.4974 92.4242 50.01C92.2404 48.8604 91.7068 47.3532 91.0876 46.3145C90.8524 45.9193 90.593 45.5497 90.3144 45.2088C86.5938 40.6502 79.377 41.1371 77.9042 53.3805C77.8258 54.0305 77.7639 54.7139 77.7196 55.4311C77.7171 55.475 77.7142 55.5194 77.7117 55.5636C77.6973 55.8127 77.8785 56.2572 78.1361 56.7436C78.245 56.9491 78.3675 57.163 78.4948 57.3718C78.5396 57.4452 78.5846 57.5181 78.6298 57.5898C78.9765 58.1398 79.3332 58.6329 79.5249 58.843C80.9104 60.3652 84.0869 63.4048 86.6608 62.502Z"
          fill="#FDBD96" />
    <path d="M89.3662 59.6444C89.3662 59.6444 91.2286 60.3313 91.2167 59.6669C91.1899 58.1628 91.4915 56.2391 91.4915 56.2391"
          fill="#FDBD96" />
    <path d="M86.9443 58.5638C87.3514 59.1195 88.2512 60.3394 88.6123 60.7773C88.6833 60.8631 88.6511 60.9936 88.5473 61.0342C88.1485 61.1919 87.2843 61.4192 86.7586 60.719C86.2632 60.06 86.4573 59.1161 86.614 58.6182C86.6603 58.4713 86.8532 58.4394 86.9443 58.5638Z"
          fill="#FFF4F3" />
  </g>
  <path d="M91.8746 48.9563C91.9871 48.7442 91.8944 48.4806 91.674 48.385L91.401 48.2663C91.3525 48.3846 91.2931 48.5163 91.2352 48.6411C91.1766 48.7675 91.1154 48.893 91.0522 49.0182C90.9266 49.2686 90.7928 49.5155 90.6537 49.7593C90.3743 50.2464 90.0697 50.72 89.739 51.1744C89.4082 51.6282 89.0508 52.0634 88.6617 52.4676C88.2735 52.8726 87.8547 53.2481 87.4003 53.576C86.9472 53.906 86.458 54.1856 85.9392 54.398C85.6802 54.5055 85.4127 54.5917 85.1406 54.6601C84.8682 54.7278 84.5907 54.7801 84.3099 54.8051C83.7484 54.8605 83.1779 54.8294 82.6193 54.7223C82.0599 54.6169 81.5151 54.4325 80.9907 54.2027C81.502 54.46 82.0389 54.6749 82.5995 54.8121C83.1592 54.9507 83.7413 55.0149 84.3228 54.9886C84.6137 54.9784 84.9037 54.9401 85.1902 54.8847C85.4764 54.8286 85.7604 54.7538 86.0362 54.6561C86.5886 54.4632 87.1163 54.1984 87.607 53.8796C88.0999 53.5627 88.5579 53.1949 88.9842 52.7951C89.4115 52.3957 89.8072 51.964 90.1757 51.5113C90.5441 51.0587 90.886 50.5846 91.2033 50.0943C91.3614 49.8489 91.5141 49.5993 91.6592 49.3453C91.7323 49.2186 91.8033 49.0899 91.8727 48.9603C91.8735 48.9586 91.8738 48.9574 91.8746 48.9563Z"
        fill="#11181E" />
  <mask id="mask3_49_4275"
        style="mask-type:luminance"
        maskUnits="userSpaceOnUse"
        x="43"
        y="39"
        width="50"
        height="59">
    <path d="M43.1201 39.2174H92.1553V97.4186H43.1201V39.2174Z"
          fill="white" />
  </mask>
  <g mask="url(#mask3_49_4275)">
    <path d="M43.1225 87.2909C43.0013 74.7085 55.1407 74.9444 55.1407 74.9444C66.0384 78.7261 58.7964 85.9452 56.9308 92.7186C55.0644 99.4924 43.2436 99.8733 43.1225 87.2909Z"
          fill="#34002F" />
    <path d="M79.9384 54.2174C85.7088 54.6389 89.6751 51.5039 91.3906 49.7877C92.0397 49.1385 92.3063 48.2024 92.1015 47.3065C91.893 46.3962 91.6015 45.5705 91.2408 44.8261C87.4056 36.9163 75.7157 38.1789 71.9573 43.6279C66.4055 51.6764 71.9038 50.6515 59.2295 60.2526C46.5547 69.8535 52.7351 81.0116 52.7351 81.0116C53.6112 79.7197 54.6102 78.0814 55.7062 76.3586C59.3348 70.6546 64.0286 64.015 68.8694 65.8695C80.0713 70.1613 77.2673 54.0217 79.9384 54.2174Z"
          fill="#34002F" />
    <path d="M79.9386 54.2174C85.7089 54.6389 89.6754 51.504 91.3909 49.7877C92.0401 49.1385 92.3064 48.2024 92.1012 47.3069C91.8928 46.3966 91.6014 45.5709 91.2407 44.8265C91.0503 45.06 90.898 45.3511 90.788 45.704C90.788 45.704 85.7212 53.5281 80.9571 53.5096C76.193 53.4911 77.2182 56.1884 73.0679 60.3822C68.9172 64.5756 58.4815 63.2593 55.8329 75.5004C55.7663 75.8073 55.7246 76.0931 55.7065 76.3586C59.3351 70.6546 64.0289 64.015 68.8697 65.8695C80.0716 70.1614 77.2674 54.0217 79.9386 54.2174Z"
          fill="#230021" />
  </g>
  <path d="M88.4122 44.2955L88.4799 44.352L89.7246 43.061L89.6675 43.0146L89.6169 42.9748L89.5181 42.8989C89.4525 42.8492 89.3871 42.801 89.322 42.7533C89.1914 42.6581 89.0601 42.5662 88.9279 42.4758C88.6637 42.2956 88.3949 42.1233 88.122 41.958C87.5763 41.6272 87.0123 41.323 86.4312 41.0472C85.2694 40.4977 84.0342 40.059 82.7386 39.7985C81.4458 39.5372 80.0878 39.4616 78.7536 39.6393C77.4199 39.8137 76.1248 40.2469 74.9752 40.8794C73.8213 41.5093 72.8113 42.3245 71.9343 43.2236C71.7147 43.449 71.5039 43.68 71.2999 43.9155C71.1965 44.0342 71.1003 44.149 71.0022 44.2651C70.9042 44.3805 70.8082 44.4978 70.7113 44.6143C70.3252 45.0818 69.9496 45.5577 69.5844 46.0404C69.2193 46.523 68.8655 47.0143 68.5239 47.5112C68.182 48.0077 67.8534 48.5114 67.5321 49.014C66.8873 50.0199 66.2829 51.0214 65.5672 51.9213C64.1517 53.7331 62.1757 55.1273 60.1247 56.4006C59.6101 56.7187 59.0888 57.0266 58.5606 57.3323C58.0233 57.6438 57.4964 57.9709 56.979 58.3115C55.9498 59.0001 54.962 59.7489 54.0555 60.5807C53.1473 61.4101 52.3154 62.3175 51.5997 63.3021C51.2418 63.7942 50.913 64.3051 50.618 64.8324C50.3238 65.3602 50.0658 65.906 49.8433 66.4632C49.4022 67.5795 49.1166 68.749 49.0106 69.9322C48.9585 70.5235 48.9499 71.1183 48.9897 71.7106C49.0093 72.0065 49.0426 72.3019 49.0885 72.5961C49.112 72.743 49.1391 72.8899 49.1702 73.0364C49.1858 73.1099 49.2029 73.183 49.221 73.2564L49.2499 73.3668C49.2604 73.4049 49.27 73.4387 49.2835 73.4818L49.4214 73.2109C49.3154 73.2547 49.221 73.2978 49.1229 73.343C49.0256 73.3881 48.9297 73.4343 48.8345 73.4814C48.6441 73.5758 48.4563 73.6739 48.2703 73.7752C47.899 73.9783 47.5365 74.1946 47.1831 74.4237C46.4768 74.8817 45.8076 75.3905 45.194 75.9547C44.5813 76.5185 44.0223 77.1375 43.5541 77.8138C43.3189 78.1511 43.1076 78.5028 42.923 78.8664C42.737 79.2297 42.5801 79.6054 42.4534 79.9896C42.3261 80.3733 42.2294 80.7661 42.1674 81.163C42.1519 81.2622 42.1361 81.3615 42.1259 81.4613L42.1086 81.6107L42.0963 81.7597L42.0713 82.0572C42.0619 82.1564 42.0594 82.2558 42.0532 82.355C42.0282 82.7523 42.0275 83.1504 42.0332 83.5477C42.0463 83.9449 42.0717 84.3422 42.1194 84.737C42.2182 85.5254 42.3934 86.3082 42.6918 87.0511C42.8409 87.422 43.018 87.7833 43.2343 88.1235C43.3426 88.2935 43.4593 88.4589 43.5877 88.6156C43.7166 88.7719 43.8537 88.9235 44.0129 89.0531C43.8569 88.9202 43.7241 88.7654 43.5997 88.6069C43.4756 88.4477 43.3637 88.2806 43.2603 88.1091C43.0533 87.766 42.8862 87.4028 42.7476 87.0315C42.4701 86.2879 42.3165 85.5081 42.238 84.7247C42.2007 84.3324 42.1855 83.9384 42.1826 83.5448C42.1871 83.1508 42.1978 82.7567 42.2326 82.3641C42.2413 82.2656 42.2461 82.1676 42.2576 82.0695L42.2897 81.7753L42.3057 81.6284L42.3261 81.4826C42.3384 81.3853 42.3565 81.289 42.3738 81.1924C42.4444 80.8067 42.5484 80.4271 42.6813 80.0565C42.8141 79.686 42.9751 79.3245 43.1647 78.976C43.3531 78.6268 43.5668 78.2901 43.8031 77.9676C44.2738 77.3213 44.8321 76.732 45.4418 76.196C46.0526 75.6601 46.7173 75.1786 47.4161 74.7473C47.7657 74.5319 48.124 74.3289 48.4901 74.1396C48.6732 74.0452 48.858 73.9537 49.0447 73.8672C49.1383 73.8241 49.2318 73.7812 49.3258 73.7402C49.4189 73.6997 49.5162 73.6581 49.6052 73.6237L49.8002 73.5478L49.7431 73.353C49.7352 73.3262 49.726 73.2897 49.7177 73.2572L49.6935 73.1555C49.6783 73.0874 49.6639 73.0186 49.6508 72.9491C49.6244 72.8105 49.6019 72.6705 49.5831 72.5301C49.5462 72.2494 49.5206 71.9661 49.5083 71.6821C49.4829 71.1141 49.5043 70.5441 49.5675 69.9782C49.6952 68.8463 49.9942 67.7326 50.4404 66.6738C50.6653 66.1452 50.9238 65.6285 51.2168 65.1295C51.5107 64.6305 51.836 64.1484 52.1895 63.6838C52.8961 62.7542 53.7144 61.8997 54.6062 61.1188C55.4967 60.3358 56.4667 59.6316 57.478 58.9853C57.9868 58.6655 58.5048 58.3586 59.033 58.0669C59.5711 57.7705 60.1107 57.4675 60.6425 57.1544C61.7063 56.5274 62.7536 55.863 63.7471 55.1136C64.2437 54.7384 64.7252 54.3404 65.1822 53.9145C65.6386 53.4885 66.0687 53.0326 66.4643 52.5557C66.8602 52.0788 67.2223 51.5831 67.565 51.0862C67.9076 50.5893 68.2342 50.0913 68.5637 49.6013C69.2208 48.62 69.9 47.6676 70.6321 46.7459C70.9972 46.285 71.3726 45.8308 71.7591 45.3843C71.8564 45.2731 71.952 45.1606 72.0504 45.0502C72.1485 44.9399 72.2466 44.8268 72.3431 44.7222C72.5371 44.5097 72.7367 44.302 72.9423 44.1013C73.7647 43.2994 74.686 42.5995 75.7 42.0778C76.7117 41.5538 77.8152 41.2169 78.9479 41.0953C80.0805 40.9723 81.2383 41.0617 82.3615 41.3168C83.486 41.5713 84.5775 41.9866 85.6113 42.5073C86.1279 42.7679 86.631 43.056 87.1161 43.3667C87.3586 43.5223 87.5967 43.6836 87.8282 43.8498C87.944 43.933 88.058 44.0176 88.1692 44.103C88.2245 44.1457 88.2795 44.1888 88.3334 44.2315L88.4122 44.2955Z"
        fill="#34002F" />
  <mask id="mask4_49_4275"
        style="mask-type:luminance"
        maskUnits="userSpaceOnUse"
        x="43"
        y="65"
        width="31"
        height="37">
    <path d="M43.2451 65.5472H73.3072V101.891H43.2451V65.5472Z"
          fill="white" />
  </mask>
  <g mask="url(#mask4_49_4275)">
    <path d="M72.8322 97.4086C73.1424 96.4721 73.3046 95.7423 73.3046 95.7423C73.3046 95.7423 60.7276 94.2957 57.6111 93.9617C55.707 93.7573 69.4091 80.2712 70.745 74.372C72.014 68.767 70.2681 65.9749 67.7993 65.6159C67.67 65.597 67.5385 65.5847 67.4056 65.579C67.4056 65.579 62.8423 64.466 55.3847 75.3737C47.9275 86.2814 40.0248 98.4137 44.5883 100.751C49.1519 103.088 67.2941 101.085 69.6316 101.419C71.1542 101.636 72.2518 99.1605 72.8318 97.4089L72.8322 97.4086Z"
          fill="#25766D" />
    <path d="M69.6316 101.419C71.1542 101.637 72.2518 99.161 72.8318 97.4094C70.0456 102.31 48.2371 100.387 45.7867 98.742C43.3355 97.0964 49.3228 87.2572 56.9084 75.6688C61.8922 68.0549 65.7436 66.0773 67.7993 65.6164C67.67 65.5975 67.5387 65.5852 67.4058 65.5795C67.4058 65.5795 62.8423 64.4665 55.3847 75.3742C47.9275 86.2819 40.0248 98.4142 44.5883 100.751C49.1519 103.089 67.2941 101.085 69.6316 101.419Z"
          fill="#25766D" />
  </g>
  <mask id="mask5_49_4275"
        style="mask-type:luminance"
        maskUnits="userSpaceOnUse"
        x="103"
        y="31"
        width="34"
        height="19">
    <path d="M103.156 31.2741H136.551V49.0293H103.156V31.2741Z"
          fill="white" />
  </mask>
  <g mask="url(#mask5_49_4275)">
    <g opacity="0.03">
      <path d="M105.891 45.4409H133.819C135.329 45.4409 136.553 44.2172 136.553 42.7069V34.0079C136.553 32.498 135.329 31.2738 133.819 31.2738H105.891C104.381 31.2738 103.157 32.498 103.157 34.0079V42.7069C103.157 44.2168 104.381 45.4409 105.891 45.4409Z"
            fill="#B4D0FC" />
      <path d="M107.573 49.0228V43.6747L115.526 44.411L107.573 49.0228Z"
            fill="#B4D0FC" />
      <path d="M106.589 34.3685C106.338 34.3685 106.086 34.3685 105.835 34.3685C105.541 34.3685 105.323 34.1973 105.31 33.9947C105.297 33.7928 105.56 33.6208 105.835 33.6208C105.851 33.6208 105.867 33.6208 105.883 33.6208C106.245 33.6172 106.608 33.6208 106.971 33.6208C107.739 33.6208 108.507 33.6208 109.274 33.6208C110.342 33.6208 111.409 33.6208 112.477 33.6208C113.736 33.6208 114.995 33.6208 116.254 33.6208C117.613 33.6208 118.973 33.6208 120.332 33.6208C121.67 33.6208 123.007 33.6208 124.345 33.6208C125.571 33.6208 126.796 33.6208 128.022 33.6208C129.026 33.6208 130.031 33.6208 131.035 33.6208C131.713 33.6208 132.391 33.6208 133.068 33.6208C133.32 33.6208 133.571 33.6208 133.822 33.6208C134.116 33.6208 134.335 33.792 134.347 33.9947C134.36 34.1966 134.097 34.3685 133.822 34.3685C133.806 34.3685 133.79 34.3685 133.774 34.3685C133.412 34.3721 133.049 34.3685 132.686 34.3685C131.919 34.3685 131.151 34.3685 130.383 34.3685C129.316 34.3685 128.248 34.3685 127.18 34.3685C125.921 34.3685 124.663 34.3685 123.404 34.3685C122.044 34.3685 120.685 34.3685 119.325 34.3685C117.987 34.3685 116.65 34.3685 115.312 34.3685C114.087 34.3685 112.861 34.3685 111.635 34.3685C110.631 34.3685 109.626 34.3685 108.622 34.3685C107.944 34.3685 107.267 34.3685 106.589 34.3685Z"
            fill="white" />
      <path d="M106.191 38.1711C106.072 38.1711 105.954 38.1711 105.835 38.1711C105.541 38.1711 105.323 37.9995 105.31 37.7972C105.297 37.5953 105.56 37.4234 105.835 37.4234C105.843 37.4234 105.851 37.4234 105.858 37.4234C106.029 37.4223 106.2 37.4234 106.371 37.4234C106.733 37.4234 107.095 37.4234 107.456 37.4234C107.959 37.4234 108.463 37.4234 108.966 37.4234C109.559 37.4234 110.152 37.4234 110.746 37.4234C111.387 37.4234 112.027 37.4234 112.668 37.4234C113.299 37.4234 113.929 37.4234 114.559 37.4234C115.137 37.4234 115.715 37.4234 116.292 37.4234C116.766 37.4234 117.239 37.4234 117.712 37.4234C118.032 37.4234 118.351 37.4234 118.67 37.4234C118.789 37.4234 118.907 37.4234 119.026 37.4234C119.32 37.4234 119.538 37.5946 119.551 37.7972C119.564 37.9992 119.301 38.1711 119.026 38.1711C119.018 38.1711 119.01 38.1711 119.003 38.1711C118.832 38.1722 118.661 38.1711 118.49 38.1711C118.128 38.1711 117.766 38.1711 117.405 38.1711C116.902 38.1711 116.398 38.1711 115.895 38.1711C115.302 38.1711 114.709 38.1711 114.115 38.1711C113.474 38.1711 112.834 38.1711 112.193 38.1711C111.562 38.1711 110.932 38.1711 110.302 38.1711C109.724 38.1711 109.146 38.1711 108.569 38.1711C108.095 38.1711 107.622 38.1711 107.149 38.1711C106.829 38.1711 106.51 38.1711 106.191 38.1711Z"
            fill="white" />
      <path d="M122.425 38.1838C122.321 38.1838 122.217 38.1842 122.113 38.1842C121.971 38.1846 121.844 38.1421 121.742 38.0748C121.639 38.0075 121.594 37.9073 121.588 37.8104C121.582 37.7173 121.651 37.611 121.742 37.5462C121.837 37.4781 121.978 37.4366 122.113 37.4366C122.12 37.4366 122.126 37.4366 122.133 37.4366C122.283 37.4358 122.433 37.4362 122.583 37.4362C122.901 37.4358 123.22 37.4352 123.538 37.4348C123.979 37.4341 124.419 37.4337 124.859 37.4333C125.383 37.4329 125.907 37.4319 126.431 37.4316C126.99 37.4308 127.548 37.4304 128.106 37.4296C128.663 37.4289 129.22 37.4283 129.777 37.4275C130.282 37.4271 130.787 37.4262 131.292 37.4258C131.709 37.4254 132.126 37.425 132.543 37.4246C132.822 37.4246 133.103 37.4242 133.383 37.4239C133.487 37.4239 133.59 37.4235 133.694 37.4235C133.836 37.4235 133.963 37.4656 134.066 37.5329C134.169 37.6002 134.213 37.7004 134.22 37.7973C134.225 37.8904 134.157 37.9967 134.066 38.0615C133.97 38.1296 133.829 38.1711 133.694 38.1711C133.688 38.1711 133.681 38.1711 133.674 38.1711C133.525 38.1719 133.374 38.1715 133.225 38.1715C132.906 38.1719 132.587 38.1725 132.269 38.1728C131.829 38.1736 131.389 38.174 130.949 38.1744C130.425 38.1748 129.9 38.1757 129.376 38.1761C128.817 38.1769 128.26 38.1773 127.701 38.178C127.144 38.1788 126.587 38.1794 126.03 38.1802C125.525 38.1805 125.02 38.1815 124.515 38.1819C124.098 38.1823 123.682 38.1827 123.265 38.183C122.985 38.183 122.704 38.1834 122.425 38.1838Z"
            fill="white" />
      <path d="M106.077 41.9994C105.996 41.9994 105.916 41.9994 105.835 41.9994C105.693 41.9994 105.566 41.9571 105.464 41.8898C105.361 41.8225 105.316 41.7225 105.31 41.6256C105.304 41.5325 105.373 41.4262 105.464 41.3614C105.559 41.2937 105.701 41.2518 105.835 41.2518C105.84 41.2518 105.845 41.2518 105.85 41.2518C105.967 41.2514 106.083 41.2518 106.199 41.2518C106.446 41.2518 106.693 41.2518 106.94 41.2518C107.282 41.2518 107.623 41.2518 107.964 41.2518C108.371 41.2518 108.777 41.2518 109.184 41.2518C109.618 41.2518 110.05 41.2518 110.483 41.2518C110.915 41.2518 111.347 41.2518 111.779 41.2518C112.171 41.2518 112.563 41.2518 112.954 41.2518C113.278 41.2518 113.601 41.2518 113.924 41.2518C114.141 41.2518 114.359 41.2518 114.576 41.2518C114.656 41.2518 114.737 41.2518 114.817 41.2518C114.96 41.2518 115.086 41.2941 115.189 41.3614C115.292 41.4287 115.337 41.5287 115.343 41.6256C115.348 41.7187 115.28 41.825 115.189 41.8898C115.094 41.9575 114.952 41.9994 114.817 41.9994C114.812 41.9994 114.807 41.9994 114.802 41.9994C114.686 41.9998 114.569 41.9994 114.453 41.9994C114.206 41.9994 113.959 41.9994 113.712 41.9994C113.371 41.9994 113.03 41.9994 112.688 41.9994C112.282 41.9994 111.875 41.9994 111.469 41.9994C111.035 41.9994 110.602 41.9994 110.169 41.9994C109.737 41.9994 109.305 41.9994 108.873 41.9994C108.482 41.9994 108.09 41.9994 107.698 41.9994C107.375 41.9994 107.052 41.9994 106.729 41.9994C106.511 41.9994 106.294 41.9994 106.077 41.9994Z"
            fill="white" />
      <path d="M118.54 41.9995C118.4 41.9995 118.26 41.9995 118.12 41.9995C117.826 41.9995 117.608 41.8283 117.595 41.6256C117.582 41.4237 117.845 41.2518 118.12 41.2518C118.129 41.2518 118.138 41.2518 118.147 41.2518C118.349 41.2507 118.551 41.2518 118.753 41.2518C119.18 41.2518 119.607 41.2518 120.034 41.2518C120.628 41.2518 121.223 41.2518 121.817 41.2518C122.517 41.2518 123.218 41.2518 123.918 41.2518C124.675 41.2518 125.432 41.2518 126.188 41.2518C126.932 41.2518 127.677 41.2518 128.421 41.2518C129.103 41.2518 129.785 41.2518 130.467 41.2518C131.026 41.2518 131.585 41.2518 132.144 41.2518C132.521 41.2518 132.898 41.2518 133.275 41.2518C133.415 41.2518 133.555 41.2518 133.695 41.2518C133.989 41.2518 134.207 41.423 134.22 41.6256C134.233 41.8275 133.97 41.9995 133.695 41.9995C133.686 41.9995 133.677 41.9995 133.668 41.9995C133.466 42.0006 133.264 41.9995 133.062 41.9995C132.635 41.9995 132.208 41.9995 131.781 41.9995C131.187 41.9995 130.592 41.9995 129.998 41.9995C129.298 41.9995 128.597 41.9995 127.897 41.9995C127.14 41.9995 126.383 41.9995 125.627 41.9995C124.883 41.9995 124.138 41.9995 123.394 41.9995C122.712 41.9995 122.03 41.9995 121.348 41.9995C120.789 41.9995 120.23 41.9995 119.671 41.9995C119.294 41.9995 118.917 41.9995 118.54 41.9995Z"
            fill="white" />
    </g>
  </g>
  <mask id="mask6_49_4275"
        style="mask-type:luminance"
        maskUnits="userSpaceOnUse"
        x="34"
        y="31"
        width="30"
        height="17">
    <path d="M34.1128 31.3847H63.5954V47.0783H34.1128V31.3847Z"
          fill="white" />
  </mask>
  <g mask="url(#mask6_49_4275)">
    <g opacity="1.00001">
      <path d="M61.2139 43.9062H36.5303C35.1956 43.9062 34.1134 42.8245 34.1139 41.4898V33.801C34.1139 32.4665 35.1958 31.3846 36.5303 31.3846H61.2139C62.5484 31.3846 63.6304 32.4665 63.6304 33.801V41.4898C63.6304 42.8243 62.5484 43.9062 61.2139 43.9062Z"
            fill="#B4D0FC" />
      <path d="M59.7266 47.0719V42.345L52.6978 42.9957L59.7266 47.0719Z"
            fill="#B4D0FC" />
      <path d="M37.1916 34.1197C36.9692 34.1197 36.747 34.1197 36.5251 34.1197C36.265 34.1197 36.0721 33.9685 36.0609 33.7893C36.0497 33.6108 36.2822 33.4588 36.5251 33.4588C36.5393 33.4588 36.553 33.4588 36.5672 33.4588C36.8874 33.4556 37.2085 33.4588 37.5291 33.4588C38.2075 33.4588 38.886 33.4588 39.5643 33.4588C40.5082 33.4588 41.4515 33.4588 42.3954 33.4588C43.5082 33.4588 44.6207 33.4588 45.7335 33.4588C46.9352 33.4588 48.1365 33.4588 49.3382 33.4588C50.5207 33.4588 51.7027 33.4588 52.8852 33.4588C53.9683 33.4588 55.0519 33.4588 56.135 33.4588C57.0226 33.4588 57.9106 33.4588 58.7985 33.4588C59.3973 33.4588 59.9961 33.4588 60.5948 33.4588C60.8172 33.4588 61.0394 33.4588 61.2613 33.4588C61.5214 33.4588 61.7143 33.6101 61.7255 33.7893C61.7367 33.9678 61.5042 34.1197 61.2613 34.1197C61.2471 34.1197 61.2334 34.1197 61.2192 34.1197C60.899 34.1229 60.5779 34.1197 60.2573 34.1197C59.579 34.1197 58.9006 34.1197 58.2221 34.1197C57.2782 34.1197 56.3349 34.1197 55.391 34.1197C54.2782 34.1197 53.1657 34.1197 52.0529 34.1197C50.8512 34.1197 49.6499 34.1197 48.4482 34.1197C47.2657 34.1197 46.0837 34.1197 44.9012 34.1197C43.8181 34.1197 42.7345 34.1197 41.6514 34.1197C40.7638 34.1197 39.8759 34.1197 38.9879 34.1197C38.3892 34.1197 37.7904 34.1197 37.1916 34.1197Z"
            fill="white" />
      <path d="M49.9173 37.4806C49.8124 37.4806 49.7081 37.4806 49.6032 37.4806C49.3432 37.4806 49.1503 37.3289 49.1391 37.1501C49.1279 36.9716 49.3603 36.8197 49.6032 36.8197C49.6101 36.8197 49.6165 36.8197 49.6231 36.8197C49.7744 36.8185 49.9253 36.8197 50.0766 36.8197C50.3965 36.8197 50.716 36.8197 51.036 36.8197C51.4808 36.8197 51.9253 36.8197 52.37 36.8197C52.8941 36.8197 53.4186 36.8197 53.9431 36.8197C54.5097 36.8197 55.076 36.8197 55.6422 36.8197C56.1996 36.8197 56.7568 36.8197 57.314 36.8197C57.8243 36.8197 58.3349 36.8197 58.8453 36.8197C59.2637 36.8197 59.6822 36.8197 60.1007 36.8197C60.3829 36.8197 60.6652 36.8197 60.9474 36.8197C61.0523 36.8197 61.1566 36.8197 61.2615 36.8197C61.522 36.8197 61.7144 36.971 61.7256 37.1501C61.7368 37.3286 61.5044 37.4806 61.2615 37.4806C61.2546 37.4806 61.2482 37.4806 61.2416 37.4806C61.0903 37.4818 60.9394 37.4806 60.7881 37.4806C60.4682 37.4806 60.1487 37.4806 59.8287 37.4806C59.3839 37.4806 58.9394 37.4806 58.4947 37.4806C57.9706 37.4806 57.4461 37.4806 56.9216 37.4806C56.355 37.4806 55.7887 37.4806 55.2225 37.4806C54.6651 37.4806 54.1079 37.4806 53.5507 37.4806C53.0404 37.4806 52.5296 37.4806 52.0192 37.4806C51.6007 37.4806 51.1825 37.4806 50.764 37.4806C50.4818 37.4806 50.1995 37.4806 49.9173 37.4806Z"
            fill="white" />
      <path d="M36.9142 37.4919C36.8223 37.4919 36.7309 37.4921 36.639 37.4921C36.5131 37.4926 36.4013 37.4547 36.3106 37.3952C36.2196 37.3358 36.1801 37.2474 36.1746 37.1617C36.1696 37.0794 36.2301 36.9854 36.3106 36.9281C36.3947 36.868 36.5197 36.8314 36.639 36.8314C36.6447 36.8314 36.6507 36.8314 36.6564 36.8314C36.7887 36.8307 36.9215 36.8309 37.0538 36.8309C37.3354 36.8305 37.617 36.8303 37.8985 36.8298C38.2878 36.8291 38.6767 36.8289 39.0655 36.8284C39.5288 36.828 39.9923 36.8275 40.4555 36.8271C40.9492 36.8264 41.4424 36.8259 41.9361 36.8252C42.4284 36.8245 42.9204 36.8241 43.4127 36.8234C43.8593 36.8229 44.3052 36.8223 44.7518 36.8218C45.1202 36.8213 45.4886 36.8213 45.857 36.8209C46.1043 36.8209 46.3523 36.8204 46.5996 36.82C46.6915 36.82 46.7829 36.8197 46.8748 36.8197C47.0002 36.8197 47.1124 36.8572 47.2032 36.9167C47.2941 36.9761 47.3337 37.0645 47.3392 37.1502C47.3442 37.2325 47.2836 37.3264 47.2032 37.3838C47.1191 37.4439 46.9941 37.4805 46.8748 37.4805C46.869 37.4805 46.8631 37.4805 46.8574 37.4805C46.7251 37.4812 46.5923 37.4809 46.4599 37.4809C46.1784 37.4814 45.8968 37.4816 45.6152 37.4821C45.226 37.4828 44.837 37.483 44.4483 37.4835C43.985 37.4839 43.5215 37.4844 43.0582 37.4848C42.5646 37.4855 42.0714 37.486 41.5777 37.4867C41.0854 37.4873 40.5933 37.4878 40.1011 37.4885C39.6545 37.4889 39.2086 37.4896 38.762 37.4901C38.3936 37.4905 38.0252 37.4905 37.6567 37.491C37.4095 37.491 37.1615 37.4914 36.9142 37.4919Z"
            fill="white" />
      <path d="M53.5348 40.8644C53.4633 40.8644 53.3922 40.8644 53.3211 40.8644C53.1952 40.8644 53.0837 40.8269 52.993 40.7675C52.902 40.708 52.8622 40.6196 52.8567 40.5339C52.8517 40.4516 52.9125 40.3577 52.993 40.3003C53.0771 40.2404 53.2021 40.2034 53.3211 40.2034C53.3255 40.2034 53.3303 40.2034 53.3346 40.2034C53.4372 40.2029 53.5403 40.2034 53.6429 40.2034C53.8612 40.2034 54.0797 40.2034 54.298 40.2034C54.5996 40.2034 54.9013 40.2034 55.203 40.2034C55.5625 40.2034 55.9213 40.2034 56.2808 40.2034C56.6639 40.2034 57.0467 40.2034 57.4293 40.2034C57.8112 40.2034 58.1929 40.2034 58.5748 40.2034C58.9208 40.2034 59.2673 40.2034 59.6133 40.2034C59.8992 40.2034 60.1844 40.2034 60.4703 40.2034C60.6626 40.2034 60.8543 40.2034 61.0463 40.2034C61.1178 40.2034 61.1889 40.2034 61.26 40.2034C61.3859 40.2034 61.4974 40.2409 61.5882 40.3003C61.6791 40.3597 61.7189 40.4482 61.7244 40.5339C61.7294 40.6162 61.6686 40.7101 61.5882 40.7675C61.5041 40.8273 61.3791 40.8644 61.26 40.8644C61.2556 40.8644 61.2508 40.8644 61.2465 40.8644C61.1439 40.8648 61.0408 40.8644 60.9382 40.8644C60.7199 40.8644 60.5014 40.8644 60.2832 40.8644C59.9815 40.8644 59.6798 40.8644 59.3781 40.8644C59.0186 40.8644 58.6598 40.8644 58.3003 40.8644C57.9172 40.8644 57.5344 40.8644 57.1518 40.8644C56.7699 40.8644 56.3883 40.8644 56.0064 40.8644C55.6603 40.8644 55.3139 40.8644 54.9678 40.8644C54.6819 40.8644 54.3967 40.8644 54.1108 40.8644C53.9186 40.8644 53.7268 40.8644 53.5348 40.8644Z"
            fill="white" />
      <path d="M37.0096 40.8644C36.8859 40.8644 36.7625 40.8644 36.6389 40.8644C36.3783 40.8644 36.1859 40.7131 36.1747 40.5339C36.1635 40.3554 36.3959 40.2034 36.6389 40.2034C36.6469 40.2034 36.6547 40.2034 36.6627 40.2034C36.8412 40.2023 37.0194 40.2034 37.1979 40.2034C37.5755 40.2034 37.953 40.2034 38.3306 40.2034C38.8553 40.2034 39.3808 40.2034 39.906 40.2034C40.5251 40.2034 41.1442 40.2034 41.7634 40.2034C42.4319 40.2034 43.1008 40.2034 43.7693 40.2034C44.4273 40.2034 45.0853 40.2034 45.7433 40.2034C46.3462 40.2034 46.9489 40.2034 47.5518 40.2034C48.0459 40.2034 48.5398 40.2034 49.0339 40.2034C49.3669 40.2034 49.7002 40.2034 50.0336 40.2034C50.1573 40.2034 50.2807 40.2034 50.4043 40.2034C50.6644 40.2034 50.8573 40.3547 50.8685 40.5339C50.8797 40.7124 50.6473 40.8644 50.4043 40.8644C50.3963 40.8644 50.3883 40.8644 50.3808 40.8644C50.2023 40.8655 50.0238 40.8644 49.8453 40.8644C49.4677 40.8644 49.0902 40.8644 48.7126 40.8644C48.1879 40.8644 47.6624 40.8644 47.1372 40.8644C46.5181 40.8644 45.899 40.8644 45.2798 40.8644C44.6113 40.8644 43.9424 40.8644 43.2739 40.8644C42.6159 40.8644 41.9579 40.8644 41.2999 40.8644C40.697 40.8644 40.0943 40.8644 39.4914 40.8644C38.9973 40.8644 38.5034 40.8644 38.0093 40.8644C37.6763 40.8644 37.343 40.8644 37.0096 40.8644Z"
            fill="white" />
    </g>
  </g>
  <path d="M35.1302 67.573C35.7388 67.573 36.232 67.0798 36.232 66.4712C36.232 65.8626 35.7388 65.3693 35.1302 65.3693C34.5216 65.3693 34.0283 65.8626 34.0283 66.4712C34.0283 67.0798 34.5216 67.573 35.1302 67.573Z"
        fill="#FFFEFB" />
  <path d="M159.549 78.1718C160.596 78.1718 161.444 77.3236 161.444 76.2772C161.444 75.2307 160.596 74.3825 159.549 74.3825C158.503 74.3825 157.655 75.2307 157.655 76.2772C157.655 77.3236 158.503 78.1718 159.549 78.1718Z"
        fill="white" />
  <path d="M144.387 65.8641C145.274 65.8641 145.993 65.1451 145.993 64.2582C145.993 63.3714 145.274 62.6524 144.387 62.6524C143.5 62.6524 142.781 63.3714 142.781 64.2582C142.781 65.1451 143.5 65.8641 144.387 65.8641Z"
        fill="white" />
  <path d="M147.896 77.475C148.548 77.475 149.076 76.9467 149.076 76.2954C149.076 75.6441 148.548 75.1159 147.896 75.1159C147.245 75.1159 146.717 75.6441 146.717 76.2954C146.717 76.9467 147.245 77.475 147.896 77.475Z"
        fill="#FFFEFB" />
  <path d="M40.5799 57.9455C41.2312 57.9455 41.7595 57.4173 41.7595 56.766C41.7595 56.1147 41.2312 55.5864 40.5799 55.5864C39.9286 55.5864 39.4004 56.1147 39.4004 56.766C39.4004 57.4173 39.9286 57.9455 40.5799 57.9455Z"
        fill="#FFFEFB" />
  <path d="M26.5184 74.692C27.1697 74.692 27.6979 74.1638 27.6979 73.5125C27.6979 72.8612 27.1697 72.3329 26.5184 72.3329C25.8671 72.3329 25.3389 72.8612 25.3389 73.5125C25.3389 74.1638 25.8671 74.692 26.5184 74.692Z"
        fill="white" />
  <mask id="mask7_49_4275"
        style="mask-type:luminance"
        maskUnits="userSpaceOnUse"
        x="75"
        y="78"
        width="72"
        height="24">
    <path d="M75.5112 78.286H146.532V101.874H75.5112V78.286Z"
          fill="white" />
  </mask>
  <g mask="url(#mask7_49_4275)">
    <path d="M138.619 101.352L137.069 87.9729H146.106L144.157 101.352H138.619Z"
          fill="#25766D" />
    <path d="M146.105 90.4094H136.802L137.556 95.7698H145.397L146.105 90.4094Z"
          fill="#FFFEFB" />
    <path d="M136.582 88.549H146.505H146.505V87.8921C146.505 87.3008 146.025 86.8214 145.434 86.8214H137.653C137.061 86.8214 136.582 87.3008 136.582 87.8921V88.549Z"
          fill="#34002F" />
    <path d="M137.603 86.8214H145.489V85.9076C145.489 85.4582 145.124 85.0938 144.675 85.0938H138.417C137.967 85.0938 137.603 85.4582 137.603 85.9076V86.8214Z"
          fill="#34002F" />
    <path d="M76.5193 99.8503H96.5768C97.1358 99.8503 97.5888 100.304 97.5892 100.863C97.5892 101.422 97.1358 101.875 96.5768 101.875H76.5193C75.9599 101.875 75.5068 101.422 75.5068 100.863C75.5068 100.303 75.9603 99.8503 76.5193 99.8503Z"
          fill="#80808E" />
    <path d="M94.3647 101.875H124.823C125.346 101.875 125.81 101.539 125.973 101.041L132.903 79.8737C133.159 79.091 132.576 78.2868 131.752 78.2868H101.294C100.771 78.2868 100.307 78.6232 100.144 79.1206L93.2144 100.288C92.9579 101.071 93.5411 101.875 94.3647 101.875Z"
          fill="#80808E" />
    <path d="M95.2028 101.875H126.103C126.535 101.875 126.919 101.597 127.054 101.186L134.12 79.5981C134.332 78.9508 133.85 78.286 133.169 78.286H102.269C101.837 78.286 101.453 78.5645 101.319 78.9756L94.2521 100.563C94.0404 101.21 94.5219 101.875 95.2028 101.875Z"
          fill="#3B3348" />
    <path d="M114.686 92.7183C116.194 92.7183 117.417 91.4957 117.417 89.9875C117.417 88.4794 116.194 87.2568 114.686 87.2568C113.178 87.2568 111.955 88.4794 111.955 89.9875C111.955 91.4957 113.178 92.7183 114.686 92.7183Z"
          fill="#FFFEFB" />
  </g>
  <path d="M90.4781 53.8353C90.529 53.8389 90.8252 53.8783 90.5946 53.8422C91.1298 53.9264 91.3732 53.1086 90.8331 53.0244C90.0418 52.8999 89.1534 52.9846 88.4782 53.4434C88.0277 53.7495 88.4344 54.4989 88.8888 54.1902C89.2332 53.9564 89.6222 53.8495 90.0358 53.8303C90.1831 53.8233 90.3308 53.8251 90.4781 53.8353Z"
        fill="#34002F" />
  <path d="M89.4196 56.2049C89.6762 56.3005 90.0161 56.0251 90.179 55.5898C90.3419 55.1544 90.2665 54.7233 90.0104 54.6273C89.7538 54.5318 89.4139 54.8071 89.251 55.2425C89.0881 55.6782 89.1635 56.109 89.4196 56.2049Z"
        fill="#34002F" />
  <mask id="mask8_49_4275"
        style="mask-type:luminance"
        maskUnits="userSpaceOnUse"
        x="76"
        y="42"
        width="16"
        height="20">
    <path d="M76.043 42.5263H91.8111V61.4353H76.043V42.5263Z"
          fill="white" />
  </mask>
  <g mask="url(#mask8_49_4275)">
    <path d="M77.6979 55.4958C78.9324 56.2304 80.5094 56.0252 81.803 55.1087C75.2783 55.4526 79.9374 48.0238 80.5818 47.0406C79.1749 47.1318 77.7189 48.0421 76.8226 49.5485C75.5061 51.7626 75.8975 54.4251 77.6979 55.4958Z"
          fill="#B4D0FC" />
    <path d="M81.803 55.1085C82.3953 54.6891 82.9279 54.1211 83.3416 53.4259C84.6586 51.2122 84.2665 48.5491 82.4666 47.478C81.8909 47.1361 81.2421 46.9979 80.5818 47.0402C79.1749 47.1313 77.7189 48.0417 76.8226 49.5481C75.5061 51.7622 75.8975 54.4247 77.6979 55.4954C78.9324 56.23 80.5094 56.025 81.803 55.1085Z"
          fill="#C5DBF9" />
    <path d="M90.9666 44.9166C91.4956 44.7086 91.8223 44.5924 91.8223 44.5924C90.9018 42.9443 89.7107 42.5577 89.7107 42.5577C86.2852 42.2249 83.2865 44.6118 81.7588 46.1212C81.073 46.7986 80.6831 47.2997 80.6831 47.2997L80.1323 47.3782C80.1323 47.3782 81.8211 52.8701 82.8754 50.1336C83.715 47.9535 88.8942 45.7304 90.9666 44.9166Z"
          fill="#C5DBF9" />
    <path d="M80.2753 53.0483C80.2564 52.9893 80.2379 52.9299 80.2216 52.8699C80.1916 52.7624 80.2579 52.6576 80.361 52.6239C80.4637 52.5911 80.5785 52.663 80.6064 52.7635C80.6075 52.7672 80.6085 52.7708 80.6097 52.7745C80.6354 52.8607 80.6614 52.947 80.6889 53.0324C80.7483 53.2166 80.8125 53.3993 80.8798 53.581C80.925 53.7029 80.9716 53.8244 81.0196 53.945C81.046 54.0111 81.0727 54.0773 81.0998 54.1429C81.1142 54.1777 81.1285 54.2123 81.1433 54.2471C81.1556 54.2767 81.1194 54.1909 81.1379 54.2348C81.1419 54.2438 81.1458 54.2523 81.1494 54.2613C81.1567 54.2781 81.1638 54.2956 81.1712 54.3123C81.3065 54.6271 81.4509 54.9376 81.6057 55.243C81.7809 55.5901 81.9694 55.9304 82.1713 56.2629C82.3891 56.6212 82.6228 56.9696 82.8747 57.3044C82.8907 57.3257 82.9072 57.3475 82.9235 57.3688C82.9318 57.3794 82.9399 57.3903 82.9482 57.4009C82.9518 57.4059 82.9555 57.4102 82.9591 57.4152C82.9743 57.4348 82.926 57.3721 82.9474 57.3996C82.9806 57.4426 83.0137 57.4853 83.0478 57.5276C83.1151 57.6113 83.1833 57.6947 83.2531 57.7769C83.3947 57.944 83.5416 58.1061 83.6939 58.2632C83.8487 58.4228 84.0094 58.5766 84.1756 58.7243C84.2592 58.7985 84.3444 58.8714 84.4309 58.942C84.4744 58.9777 84.5179 59.0125 84.5621 59.047C84.5694 59.0527 84.5771 59.0583 84.5844 59.0641C84.5844 59.0641 84.5421 59.0318 84.5663 59.0502C84.5761 59.0575 84.5859 59.0654 84.5957 59.0727C84.6178 59.0895 84.6405 59.1066 84.663 59.1233C85.0238 59.3921 85.4091 59.6285 85.8158 59.8217C85.8676 59.8463 85.9197 59.8702 85.9722 59.8936C86.0001 59.9059 86.0281 59.9177 86.056 59.9296C86.0795 59.9398 86.0054 59.9086 86.0391 59.9227C86.0449 59.9252 86.051 59.9277 86.0568 59.9302C86.0687 59.9352 86.0806 59.9398 86.0926 59.9448C86.2 59.9886 86.3087 60.0298 86.4187 60.0675C86.6427 60.1446 86.8713 60.2084 87.1029 60.2584C87.2121 60.2823 87.2656 60.4032 87.2425 60.5038C87.2179 60.613 87.0986 60.6655 86.9969 60.6434C86.8837 60.6188 86.7708 60.5911 86.6592 60.5599C86.1983 60.4319 85.751 60.249 85.3299 60.0225C84.9182 59.8013 84.533 59.5352 84.1702 59.2414C83.8246 58.961 83.5029 58.652 83.2033 58.3234C82.9008 57.9918 82.6214 57.6392 82.3605 57.2744C82.1184 56.9354 81.8934 56.5846 81.6842 56.2247C81.4921 55.8943 81.3133 55.556 81.1462 55.2126C80.9956 54.9024 80.855 54.5873 80.7229 54.2684C80.6231 54.0275 80.5289 53.784 80.4406 53.5383C80.3824 53.3762 80.327 53.2129 80.2753 53.0483Z"
          fill="#1B2630" />
    <path d="M81.0871 53.601C81.4327 53.3564 81.7438 53.0249 81.9851 52.619C82.7537 51.3268 82.5251 49.7721 81.4746 49.1475C81.1385 48.9477 80.7596 48.8673 80.3743 48.8919C79.5532 48.9448 78.7032 49.4763 78.18 50.3557C77.4114 51.6479 77.6398 53.2022 78.6909 53.8272C79.4116 54.256 80.332 54.1358 81.0871 53.601Z"
          fill="#1B2630" />
    <path d="M81.1587 51.8073C81.3068 51.6936 81.44 51.5398 81.5435 51.3513C81.8721 50.751 81.7713 50.0266 81.3179 49.7339C81.1731 49.6409 81.0097 49.6022 80.8439 49.6134C80.4907 49.6368 80.1253 49.8826 79.9017 50.2914C79.573 50.8917 79.6738 51.6159 80.1272 51.9086C80.4384 52.1093 80.8345 52.0551 81.1587 51.8073Z"
          fill="#415C7B" />
    <path d="M90.9657 44.9171C91.4947 44.709 91.8214 44.5929 91.8214 44.5929C90.9009 42.9447 89.71 42.5576 89.71 42.5576C86.2844 42.2248 83.2856 44.6117 81.7578 46.1211C84.2165 45.0094 88.1976 43.6514 90.9657 44.9171Z"
          fill="#B4D0FC" />
    <path d="M86.2339 61.1867C86.3887 61.2913 86.577 61.369 86.7887 61.4067C87.4625 61.5273 88.1173 61.2009 88.2498 60.6781C88.2925 60.5106 88.2769 60.3441 88.2136 60.1902C88.079 59.8631 87.7298 59.5951 87.271 59.513C86.5972 59.3924 85.9424 59.7187 85.8095 60.2416C85.718 60.6002 85.8957 60.9585 86.2339 61.1867Z"
          fill="#415C7B" />
  </g>
</svg>